<svg width="75" height="75" viewBox="0 0 75 75" fill="none" xmlns="http://www.w3.org/2000/svg">
<path d="M15.8203 33.0469C20.6744 33.0469 24.6094 31.8926 24.6094 30.4688C24.6094 29.0449 20.6744 27.8906 15.8203 27.8906C10.9662 27.8906 7.03125 29.0449 7.03125 30.4688C7.03125 31.8926 10.9662 33.0469 15.8203 33.0469Z" stroke="#F2B694" stroke-width="2" stroke-miterlimit="10" stroke-linecap="round" stroke-linejoin="round"/>
<path d="M24.4922 35.1562C24.4922 36.5625 20.625 37.7344 15.7031 37.7344C10.7812 37.7344 7.03125 36.5625 7.03125 35.1562" stroke="#F2B694" stroke-width="2" stroke-miterlimit="10" stroke-linecap="round" stroke-linejoin="round"/>
<path d="M24.4922 39.8438C24.4922 41.25 20.625 42.4219 15.7031 42.4219C10.7812 42.4219 7.03125 41.25 7.03125 39.8438" stroke="#F2B694" stroke-width="2" stroke-miterlimit="10" stroke-linecap="round" stroke-linejoin="round"/>
<path d="M24.4922 44.5312C24.4922 45.9375 20.625 47.1094 15.7031 47.1094C10.7812 47.1094 7.03125 45.9375 7.03125 44.5312" stroke="#F2B694" stroke-width="2" stroke-miterlimit="10" stroke-linecap="round" stroke-linejoin="round"/>
<path d="M24.4922 49.2188C24.4922 50.625 20.625 51.7969 15.7031 51.7969C10.7812 51.7969 7.03125 50.625 7.03125 49.2188" stroke="#F2B694" stroke-width="2" stroke-miterlimit="10" stroke-linecap="round" stroke-linejoin="round"/>
<path d="M24.4922 53.9062C24.4922 55.3125 20.625 56.4844 15.7031 56.4844C10.7812 56.4844 7.03125 55.3125 7.03125 53.9062" stroke="#F2B694" stroke-width="2" stroke-miterlimit="10" stroke-linecap="round" stroke-linejoin="round"/>
<path d="M24.4922 30.4688V58.5938C24.4922 60 20.625 61.1719 15.7031 61.1719C10.7812 61.1719 7.03125 60 7.03125 58.5938V30.4688" stroke="#F2B694" stroke-width="2" stroke-miterlimit="10" stroke-linecap="round" stroke-linejoin="round"/>
<path d="M69.375 39.844C69.4922 41.2502 65.5078 42.4221 60.5859 42.4221C55.6641 42.4221 51.7969 41.2502 51.7969 39.844C51.7969 38.4377 56.1328 37.2658 60.5859 37.2658C64.8047 37.1487 69.2578 37.969 69.375 39.844Z" stroke="#F2B694" stroke-width="2" stroke-miterlimit="10" stroke-linecap="round" stroke-linejoin="round"/>
<path d="M69.375 44.5312C69.375 45.9375 65.5078 47.1094 60.5859 47.1094C55.6641 47.1094 51.7969 45.9375 51.7969 44.5312" stroke="#F2B694" stroke-width="2" stroke-miterlimit="10" stroke-linecap="round" stroke-linejoin="round"/>
<path d="M69.375 49.2188C69.375 50.625 65.5078 51.7969 60.5859 51.7969C55.6641 51.7969 51.7969 50.625 51.7969 49.2188" stroke="#F2B694" stroke-width="2" stroke-miterlimit="10" stroke-linecap="round" stroke-linejoin="round"/>
<path d="M69.375 53.9062C69.375 55.3125 65.5078 56.4844 60.5859 56.4844C55.6641 56.4844 51.7969 55.3125 51.7969 53.9062" stroke="#F2B694" stroke-width="2" stroke-miterlimit="10" stroke-linecap="round" stroke-linejoin="round"/>
<path d="M69.375 58.5938C69.375 60 65.5078 61.1719 60.5859 61.1719C55.6641 61.1719 51.7969 60 51.7969 58.5938" stroke="#F2B694" stroke-width="2" stroke-miterlimit="10" stroke-linecap="round" stroke-linejoin="round"/>
<path d="M69.375 63.2812C69.375 64.6875 65.5078 65.8594 60.5859 65.8594C55.6641 65.8594 51.7969 64.6875 51.7969 63.2812" stroke="#F2B694" stroke-width="2" stroke-miterlimit="10" stroke-linecap="round" stroke-linejoin="round"/>
<path d="M69.375 39.8438V67.9688C69.375 69.375 65.5078 70.5469 60.5859 70.5469C55.6641 70.5469 51.7969 69.375 51.7969 67.9688V39.8438" stroke="#F2B694" stroke-width="2" stroke-miterlimit="10" stroke-linecap="round" stroke-linejoin="round"/>
<path d="M37.5 53.0859C42.3541 53.0859 46.2891 51.9317 46.2891 50.5078C46.2891 49.0839 42.3541 47.9297 37.5 47.9297C32.6459 47.9297 28.7109 49.0839 28.7109 50.5078C28.7109 51.9317 32.6459 53.0859 37.5 53.0859Z" stroke="#F2B694" stroke-width="2" stroke-miterlimit="10" stroke-linecap="round" stroke-linejoin="round"/>
<path d="M46.2891 55.1953C46.2891 56.6016 42.4219 57.7734 37.5 57.7734C32.5781 57.7734 28.7109 56.6016 28.7109 55.1953" stroke="#F2B694" stroke-width="2" stroke-miterlimit="10" stroke-linecap="round" stroke-linejoin="round"/>
<path d="M46.2891 59.8828C46.2891 61.2891 42.4219 62.4609 37.5 62.4609C32.5781 62.4609 28.7109 61.2891 28.7109 59.8828" stroke="#F2B694" stroke-width="2" stroke-miterlimit="10" stroke-linecap="round" stroke-linejoin="round"/>
<path d="M46.2891 64.5703C46.2891 65.9766 42.4219 67.1484 37.5 67.1484C32.5781 67.1484 28.7109 65.9766 28.7109 64.5703" stroke="#F2B694" stroke-width="2" stroke-miterlimit="10" stroke-linecap="round" stroke-linejoin="round"/>
<path d="M46.2891 50.5078V69.375V69.2578C46.2891 70.6641 42.4219 71.8359 37.5 71.8359C32.5781 71.8359 28.7109 70.6641 28.7109 69.2578V69.375V50.5078" stroke="#F2B694" stroke-width="2" stroke-miterlimit="10" stroke-linecap="round" stroke-linejoin="round"/>
<path d="M10.0783 25.1955L9.02366 19.4533C8.55491 16.8752 10.1955 14.4143 12.7737 13.9455L58.8283 5.27366C61.4065 4.80491 63.8674 6.44553 64.3362 9.02366L68.4377 30.9377C68.6721 32.2268 68.3205 33.5158 67.7346 34.4533" stroke="#F2B694" stroke-width="2" stroke-miterlimit="10" stroke-linecap="round" stroke-linejoin="round"/>
<path d="M48.0469 39.4922L28.2422 43.2422" stroke="#F2B694" stroke-width="2" stroke-miterlimit="10" stroke-linecap="round" stroke-linejoin="round"/>
<path d="M43.8281 19.1016C43.8281 19.1016 42.7734 16.6407 37.2656 17.6954C33.0468 18.5157 31.6406 21.0938 31.9922 23.2032C32.3437 25.1954 35.039 26.2501 38.6718 25.5469C43.3593 24.6094 45 26.0157 45.3515 27.8907C45.8203 30.4688 43.2422 32.6954 40.0781 33.3985C36.914 33.9844 34.1015 32.6954 33.5156 31.9923" stroke="#F2B694" stroke-width="2" stroke-miterlimit="10" stroke-linecap="round" stroke-linejoin="round"/>
<path d="M36.6797 14.6484L40.6641 35.7422" stroke="#F2B694" stroke-width="2" stroke-miterlimit="10" stroke-linecap="round" stroke-linejoin="round"/>
</svg>
