<svg width="75" height="75" viewBox="0 0 75 75" fill="none" xmlns="http://www.w3.org/2000/svg">
<path d="M72.0044 22.5307C67.1842 12.8957 58.4321 4.81377 47.8248 1.76387C44.3691 0.770052 40.7079 -0.0663429 37.0805 0.00415528C30.9753 0.122565 25.8816 1.62698 20.2524 3.84459C10.8997 7.52966 3.09426 17.6752 0.753311 27.1802C-0.222372 31.1411 -0.0389996 34.8083 0.151293 38.8226C0.280692 42.7493 0.476521 46.5679 1.80096 50.3111C6.78663 64.4059 22.6508 74.9547 37.4812 74.9998C46.9093 75.0286 58.7684 71.3127 64.5976 63.4929C67.8893 59.5005 70.9775 55.3117 72.823 50.4542C74.4319 46.2188 74.8395 42.0074 75 37.5229C74.8907 32.5332 74.3046 27.057 72.0044 22.5307ZM65.5061 17.1612C67.2125 19.2632 67.901 21.4274 68.9314 23.8613C70.7374 27.5142 71.7339 31.573 72.1408 35.6133C69.157 35.4955 66.167 35.7378 63.1804 35.7392C59.2092 35.7406 55.2082 35.6044 51.2106 35.5428C51.174 32.4032 51.001 29.265 50.6868 26.1473C50.4432 23.7278 50.0059 21.3795 49.4482 19.0619C49.8834 18.9333 50.3187 18.7977 50.7505 18.641C54.5335 17.2659 57.545 14.7362 60.8657 12.6356C62.55 13.9998 64.1429 15.4823 65.5061 17.1612ZM46.1149 54.9243C44.349 54.5547 42.534 54.3466 40.6532 54.3507C36.4349 54.3589 32.3364 54.1899 28.3333 55.1193C27.5306 49.9394 27.0047 44.7417 27.0179 39.5262C28.9941 39.5194 30.9718 39.5064 32.9529 39.4886C38.0009 39.4434 43.044 39.3339 48.0919 39.2922C48.0691 42.1771 47.9092 45.06 47.4934 47.9176C47.0623 50.2557 46.5862 52.5896 46.1149 54.9243ZM48.5216 58.8749C52.3697 60.0878 55.9949 61.9679 59.0791 64.4272C54.5169 67.987 49.0309 70.388 43.3263 71.3784C45.8949 68.6755 47.1716 64.9412 48.0061 61.2055C48.1784 60.4334 48.3507 59.6559 48.5216 58.8749ZM45.1794 59.6661C44.5462 63.0234 43.6868 66.8542 41.2587 69.4332C40.4387 70.3045 38.4458 71.6399 37.6203 71.6002C34.4317 71.5037 32.8983 69.3744 31.58 66.6222C30.3497 64.0535 29.527 61.3068 28.9402 58.5211C30.4189 58.2719 31.8942 57.9988 33.3764 57.7401C37.3449 57.0481 41.4905 57.2028 45.4901 58.07C45.3863 58.6018 45.2797 59.1336 45.1794 59.6661ZM28.7547 22.1207C28.8592 21.4281 28.936 20.7128 29.0087 19.9894C31.9911 20.6451 35.0925 20.8942 38.3116 20.6252C41.085 20.3932 43.8377 20.2344 46.5384 19.7457C47.5757 24.9318 47.9231 30.3026 48.0545 35.5168C45.5309 35.512 43.0121 35.5558 40.5079 35.7125C36.0599 35.9904 31.5717 36.2902 27.0947 36.2785C27.1452 35.232 27.2137 34.1848 27.3147 33.1369C27.6697 29.445 28.2011 25.7866 28.7547 22.1207ZM36.044 3.71523C36.4266 3.43872 36.8356 3.36274 37.1214 3.19848C37.3407 3.20327 37.5601 3.2149 37.7787 3.22448C38.1386 3.46199 38.6416 3.70428 38.834 3.86444C41.4462 6.03757 43.4508 9.93139 44.7192 13.0046C45.1441 14.214 45.5109 15.4453 45.8354 16.6896C42.9609 17.3453 39.9716 17.7204 37.4826 17.7683C34.6586 17.7587 31.9655 17.5144 29.3291 16.9141C29.5512 15.14 29.893 13.3933 30.6293 11.8253C31.324 10.3455 32.2872 8.94442 33.0629 7.49886C33.804 6.11902 34.7507 4.65019 36.044 3.71523ZM58.531 10.8636C56.2461 12.5405 53.8221 13.9457 51.1871 15.0387C50.3858 15.3707 49.5181 15.6671 48.6261 15.9415C48.0815 14.0497 47.4691 12.1682 46.8173 10.2764C46.1641 8.38043 45.178 5.99308 43.7747 4.03282C49.0524 5.23129 54.0526 7.64465 58.531 10.8636ZM31.0043 3.63515C31.1628 3.60777 31.3212 3.5934 31.4797 3.56876C28.7104 7.00469 27.3376 12.4502 26.6027 16.1503C25.6581 15.8341 24.717 15.4747 23.778 15.0422C20.9582 13.7424 18.3377 12.1476 15.8252 10.3619C20.3147 6.9691 25.5917 4.56189 31.0043 3.63515ZM2.84515 31.6229C3.25895 27.8838 4.64912 24.1919 6.48008 20.9038C8.24254 17.7512 10.6139 14.8656 13.3839 12.3735C17.2797 15.3556 21.5049 17.7478 26.0353 19.1947C25.0187 24.8175 24.1835 30.4997 23.8777 36.2053C22.5124 36.1492 21.1492 36.0671 19.7895 35.9267C14.1416 35.3443 8.41484 35.8357 2.73581 35.7707C2.68253 34.371 2.69499 32.9816 2.84515 31.6229ZM3.24372 42.4872C3.16968 41.4585 3.07419 40.4181 2.98354 39.3736C5.55215 39.5399 8.06609 39.3106 10.6534 39.377C15.0301 39.4886 19.3958 39.5256 23.7642 39.5276C23.7594 39.8698 23.7441 40.2127 23.7434 40.555C23.7365 45.7027 24.1226 51.0455 25.1641 56.1173C25.0464 56.1652 24.9288 56.2076 24.8112 56.2576C20.8877 57.9393 17.3365 59.7038 13.925 62.1083C8.16504 56.9325 3.5904 50.4603 3.24372 42.4872ZM16.5981 64.3649C16.6874 64.2944 16.7656 64.2328 16.8216 64.1931C17.7233 63.497 18.69 62.8906 19.5771 62.1726C21.4364 60.9283 23.5054 59.2774 25.7993 58.9926C26.8656 63.2622 28.2966 67.7536 30.987 71.2299C27.9949 70.7008 25.0976 69.8179 22.3581 68.2957C20.3777 67.1951 18.4173 65.8118 16.5981 64.3649ZM61.5674 62.2711C60.106 60.9666 58.3553 59.9071 56.6482 58.994C54.2173 57.6929 51.7462 56.5622 49.1845 55.7408C50.0287 51.6218 50.7429 47.4385 51.0107 43.3112C51.0978 41.9697 51.1553 40.6248 51.1885 39.2785C52.6735 39.2771 54.1578 39.2764 55.6434 39.2963C57.4813 39.3209 59.3157 39.4564 61.1557 39.4147C62.9541 39.3736 64.7131 38.8911 66.5026 38.8767C68.3508 38.8617 70.2136 38.9773 72.0674 39.0862C70.8329 47.4131 67.9017 56.1679 61.5674 62.2711Z" fill="#F2B694"/>
</svg>
