<svg width="521" height="775" viewBox="0 0 521 775" fill="none" xmlns="http://www.w3.org/2000/svg">
<path d="M498.829 194.779L510.875 194.992C511.879 195.009 512.67 196.192 512.644 197.636L512.011 232.822C511.985 234.266 511.152 235.419 510.148 235.401L498.101 235.189C497.098 235.171 496.307 233.989 496.333 232.544L496.966 197.359C496.991 195.945 497.825 194.761 498.829 194.779Z" fill="#454D55" stroke="#606060" stroke-miterlimit="10"/>
<path d="M474.542 234.773L486.588 234.986C487.592 235.003 488.383 236.186 488.357 237.63L485.957 370.997C485.931 372.442 485.098 373.595 484.095 373.577L472.048 373.364C471.044 373.347 470.253 372.164 470.279 370.72L472.678 237.383C472.705 235.908 473.538 234.755 474.542 234.773Z" fill="#454D55" stroke="#606060" stroke-miterlimit="10"/>
<path d="M448.467 372.947L460.514 373.16C461.517 373.178 462.308 374.36 462.282 375.804L461.65 410.959C461.624 412.404 460.791 413.557 459.787 413.539L447.74 413.326C446.736 413.308 445.946 412.126 445.972 410.682L446.605 375.496C446.63 374.083 447.463 372.929 448.467 372.947Z" fill="#454D55" stroke="#606060" stroke-miterlimit="10"/>
<path d="M424.16 412.91L436.206 413.123C437.21 413.14 438.001 414.322 437.975 415.767L437.342 450.952C437.316 452.397 436.483 453.55 435.479 453.532L423.432 453.319C422.429 453.302 421.638 452.12 421.664 450.675L422.297 415.49C422.323 414.045 423.156 412.892 424.16 412.91Z" fill="#454D55" stroke="#606060" stroke-miterlimit="10"/>
<path d="M403.363 258.906L415.41 259.119C416.414 259.137 417.204 260.319 417.178 261.763L413.781 450.536C413.755 451.981 412.923 453.134 411.919 453.116L399.872 452.903C398.868 452.886 398.077 451.704 398.103 450.259L401.5 261.486C401.526 260.042 402.359 258.888 403.363 258.906Z" fill="#454D55" stroke="#606060" stroke-miterlimit="10"/>
<path d="M379.82 256.368L391.867 256.581C392.871 256.599 393.662 257.781 393.636 259.225L391.236 392.562C391.21 394.006 390.378 395.159 389.374 395.142L377.327 394.929C376.323 394.911 375.532 393.729 375.558 392.285L377.958 258.948C377.984 257.504 378.816 256.35 379.82 256.368Z" fill="#454D55" stroke="#606060" stroke-miterlimit="10"/>
<path d="M355.037 322.757L367.084 322.97C368.088 322.988 368.878 324.17 368.852 325.614L367.649 392.513C367.623 393.957 366.79 395.111 365.786 395.093L353.739 394.88C352.735 394.862 351.945 393.68 351.971 392.236L353.174 325.368C353.2 323.893 354.033 322.739 355.037 322.757Z" fill="#454D55" stroke="#606060" stroke-miterlimit="10"/>
<path d="M333.851 190.479L345.897 190.692C346.901 190.71 347.692 191.892 347.666 193.336L345.267 326.673C345.241 328.117 344.408 329.271 343.404 329.253L331.357 329.04C330.353 329.022 329.563 327.84 329.589 326.396L331.988 193.059C332.014 191.615 332.847 190.462 333.851 190.479Z" fill="#454D55" stroke="#606060" stroke-miterlimit="10"/>
<path d="M310.984 150.36L323.031 150.573C324.035 150.591 324.825 151.773 324.799 153.217L324.166 188.403C324.14 189.847 323.307 191 322.304 190.983L310.257 190.77C309.253 190.752 308.462 189.57 308.488 188.125L309.121 152.94C309.147 151.495 309.98 150.342 310.984 150.36Z" fill="#454D55" stroke="#606060" stroke-miterlimit="10"/>
<path d="M289.797 16.8826L301.844 17.0956C302.848 17.1133 303.638 18.2954 303.612 19.7397L301.213 153.076C301.187 154.521 300.354 155.674 299.35 155.656L287.304 155.443C286.3 155.426 285.509 154.244 285.535 152.799L287.934 19.4625C287.96 18.0182 288.793 16.8648 289.797 16.8826Z" fill="#454D55" stroke="#606060" stroke-miterlimit="10"/>
<path d="M192.736 168.465L204.783 168.678C205.787 168.696 206.577 169.878 206.551 171.322L204.151 304.69C204.126 306.134 203.293 307.287 202.289 307.27L190.242 307.057C189.238 307.039 188.447 305.857 188.473 304.413L190.873 171.076C190.899 169.601 191.732 168.447 192.736 168.465Z" fill="#454D55" stroke="#606060" stroke-miterlimit="10"/>
<path d="M236.649 434.128H224.6C223.596 434.128 222.784 432.96 222.784 431.516V396.324C222.784 394.88 223.596 393.712 224.6 393.712H236.649C237.653 393.712 238.465 394.88 238.465 396.324V431.516C238.465 432.96 237.632 434.128 236.649 434.128Z" fill="#454D55" stroke="#606060" stroke-miterlimit="10"/>
<path d="M241.929 56.4596L253.976 56.6726C254.98 56.6903 255.77 57.8724 255.744 59.3167L254.541 126.185C254.515 127.629 253.682 128.783 252.679 128.765L240.632 128.552C239.628 128.534 238.837 127.352 238.863 125.908L240.066 59.0395C240.092 57.5952 240.925 56.4419 241.929 56.4596Z" fill="#454D55" stroke="#606060" stroke-miterlimit="10"/>
<path d="M217.044 128.503L229.091 128.716C230.095 128.734 230.885 129.916 230.859 131.36L230.227 166.515C230.201 167.959 229.368 169.113 228.364 169.095L216.317 168.882C215.313 168.864 214.523 167.682 214.549 166.238L215.182 131.052C215.207 129.639 216.04 128.485 217.044 128.503Z" fill="#454D55" stroke="#606060" stroke-miterlimit="10"/>
<path d="M167.98 234.518L180.027 234.731C181.031 234.748 181.822 235.931 181.796 237.375L180.592 304.274C180.566 305.718 179.733 306.871 178.729 306.854L166.683 306.641C165.679 306.623 164.888 305.441 164.914 303.997L166.117 237.128C166.144 235.653 166.976 234.5 167.98 234.518Z" fill="#454D55" stroke="#606060" stroke-miterlimit="10"/>
<path d="M145.646 164.836L157.693 165.049C158.696 165.066 159.487 166.248 159.461 167.693L158.258 234.561C158.232 236.005 157.399 237.159 156.395 237.141L144.349 236.928C143.345 236.91 142.554 235.728 142.58 234.284L143.783 167.416C143.809 165.971 144.642 164.818 145.646 164.836Z" fill="#454D55" stroke="#606060" stroke-miterlimit="10"/>
<path d="M121.732 162.752L134.505 162.978C135.316 162.993 135.941 163.926 135.92 165.093L135.53 186.758C135.509 187.926 134.851 188.836 134.04 188.822L121.267 188.596C120.455 188.582 119.831 187.649 119.852 186.481L120.242 164.816C120.263 163.649 120.941 162.738 121.732 162.752Z" fill="#454D55" stroke="#606060" stroke-miterlimit="10"/>
<path d="M97.9853 192.889L110.032 193.102C111.036 193.119 111.827 194.301 111.801 195.746L111.168 230.901C111.142 232.345 110.309 233.498 109.306 233.481L97.2587 233.268C96.2548 233.25 95.4641 232.068 95.4901 230.623L96.1227 195.469C96.1487 194.024 96.9814 192.871 97.9853 192.889Z" fill="#454D55" stroke="#606060" stroke-miterlimit="10"/>
<path d="M77.1303 40.9723L89.1772 41.1853C90.1812 41.203 90.9718 42.3851 90.9458 43.8294L87.549 232.603C87.523 234.047 86.6903 235.2 85.6864 235.183L73.6395 234.97C72.6356 234.952 71.8449 233.77 71.8709 232.326L75.2677 43.5522C75.2937 42.1079 76.1264 40.9545 77.1303 40.9723Z" fill="#454D55" stroke="#606060" stroke-miterlimit="10"/>
<path d="M53.5913 38.1907L65.6382 38.4037C66.6421 38.4214 67.4328 39.6035 67.4068 41.0478L65.007 174.415C64.981 175.86 64.1483 177.013 63.1444 176.995L51.0975 176.782C50.0936 176.765 49.303 175.582 49.329 174.138L51.7283 40.8014C51.7548 39.3263 52.5874 38.1729 53.5913 38.1907Z" fill="#454D55" stroke="#606060" stroke-miterlimit="10"/>
<path d="M27.6273 171.416L39.6742 171.629C40.6782 171.647 41.4688 172.829 41.4428 174.274L40.8097 209.459C40.7837 210.904 39.951 212.057 38.9471 212.039L26.9002 211.826C25.8963 211.808 25.1057 210.626 25.1317 209.182L25.7648 173.996C25.7695 172.552 26.6234 171.399 27.6273 171.416Z" fill="#454D55" stroke="#606060" stroke-miterlimit="10"/>
<path d="M2.91727 213.524L15.6903 213.75C16.502 213.764 17.1262 214.697 17.1052 215.865L16.7153 237.53C16.6943 238.697 16.037 239.608 15.2253 239.593L2.45223 239.368C1.64057 239.353 1.01639 238.42 1.0374 237.252L1.42723 215.588C1.44825 214.42 2.10561 213.51 2.91727 213.524Z" fill="#454D55" stroke="#606060" stroke-miterlimit="10"/>
<path d="M26.2073 501.671L14.1586 501.722C13.1546 501.726 12.3378 500.562 12.3316 499.117L11.7593 365.73C11.7531 364.285 12.5598 363.114 13.5639 363.11L25.6126 363.059C26.6166 363.055 27.4334 364.219 27.4396 365.664L28.0118 499.02C28.0181 500.496 27.2113 501.667 26.2073 501.671Z" fill="#454D55" stroke="#606060" stroke-miterlimit="10"/>
<path d="M96.8318 475.986L84.7831 476.036C83.779 476.041 82.9622 474.876 82.9561 473.432L82.146 284.63C82.1398 283.185 82.9466 282.014 83.9506 282.01L95.9993 281.959C97.0034 281.955 97.8202 283.119 97.8264 284.564L98.6365 473.366C98.6427 474.81 97.8359 475.981 96.8318 475.986Z" fill="#454D55" stroke="#606060" stroke-miterlimit="10"/>
<path d="M120.425 478.008L108.376 478.058C107.372 478.063 106.555 476.898 106.549 475.454L105.977 342.097C105.971 340.652 106.778 339.481 107.782 339.477L119.83 339.426C120.834 339.422 121.651 340.586 121.657 342.031L122.23 475.387C122.236 476.832 121.429 478.003 120.425 478.008Z" fill="#454D55" stroke="#606060" stroke-miterlimit="10"/>
<path d="M143.723 411.091L131.674 411.142C130.67 411.146 129.853 409.981 129.847 408.537L129.56 341.628C129.554 340.184 130.361 339.012 131.365 339.008L143.413 338.957C144.417 338.953 145.234 340.117 145.24 341.562L145.527 408.44C145.534 409.915 144.727 411.087 143.723 411.091Z" fill="#454D55" stroke="#606060" stroke-miterlimit="10"/>
<path d="M167.852 542.874L155.803 542.925C154.799 542.929 153.982 541.764 153.976 540.32L153.404 406.963C153.398 405.518 154.204 404.347 155.208 404.343L167.257 404.292C168.261 404.288 169.078 405.452 169.084 406.897L169.656 540.254C169.663 541.698 168.856 542.87 167.852 542.874Z" fill="#454D55" stroke="#606060" stroke-miterlimit="10"/>
<path d="M191.607 582.483L179.559 582.534C178.555 582.538 177.738 581.374 177.732 579.929L177.581 544.738C177.574 543.294 178.381 542.123 179.385 542.118L191.434 542.068C192.438 542.063 193.255 543.228 193.261 544.672L193.412 579.863C193.418 581.308 192.611 582.479 191.607 582.483Z" fill="#454D55" stroke="#606060" stroke-miterlimit="10"/>
<path d="M215.763 715.463L203.714 715.513C202.71 715.518 201.893 714.353 201.887 712.909L201.315 579.552C201.309 578.107 202.116 576.936 203.12 576.932L215.168 576.881C216.172 576.877 216.989 578.041 216.995 579.486L217.567 712.843C217.574 714.287 216.767 715.458 215.763 715.463Z" fill="#454D55" stroke="#606060" stroke-miterlimit="10"/>
<path d="M309.422 561.793L297.373 561.844C296.369 561.848 295.553 560.684 295.546 559.239L294.974 425.852C294.968 424.407 295.775 423.236 296.779 423.232L308.827 423.181C309.831 423.177 310.648 424.341 310.654 425.786L311.227 559.142C311.233 560.618 310.426 561.789 309.422 561.793Z" fill="#454D55" stroke="#606060" stroke-miterlimit="10"/>
<path d="M262.736 674.849L250.688 674.9C249.684 674.904 248.867 673.74 248.861 672.295L248.574 605.417C248.568 603.973 249.374 602.801 250.378 602.797L262.427 602.746C263.431 602.742 264.248 603.906 264.254 605.351L264.541 672.229C264.547 673.674 263.74 674.845 262.736 674.849Z" fill="#454D55" stroke="#606060" stroke-miterlimit="10"/>
<path d="M286.01 602.278L273.962 602.329C272.958 602.333 272.141 601.168 272.135 599.724L271.984 564.564C271.978 563.119 272.784 561.948 273.789 561.944L285.837 561.893C286.841 561.888 287.658 563.053 287.664 564.498L287.815 599.688C287.821 601.102 287.015 602.274 286.01 602.278Z" fill="#454D55" stroke="#606060" stroke-miterlimit="10"/>
<path d="M332.699 495.215L320.651 495.266C319.647 495.27 318.83 494.105 318.824 492.661L318.537 425.752C318.53 424.308 319.337 423.136 320.341 423.132L332.39 423.081C333.394 423.077 334.211 424.241 334.217 425.686L334.504 492.564C334.51 494.039 333.703 495.211 332.699 495.215Z" fill="#454D55" stroke="#606060" stroke-miterlimit="10"/>
<path d="M356.582 564.392L344.533 564.443C343.529 564.447 342.713 563.283 342.706 561.838L342.419 494.96C342.413 493.516 343.22 492.344 344.224 492.34L356.273 492.289C357.277 492.285 358.094 493.449 358.1 494.894L358.387 561.772C358.393 563.217 357.586 564.388 356.582 564.392Z" fill="#454D55" stroke="#606060" stroke-miterlimit="10"/>
<path d="M380.536 565.95L367.761 566.004C366.949 566.007 366.304 565.088 366.299 563.92L366.206 542.252C366.201 541.084 366.838 540.159 367.65 540.156L380.425 540.102C381.237 540.099 381.882 541.018 381.887 542.186L381.98 563.854C381.985 565.022 381.326 565.947 380.536 565.95Z" fill="#454D55" stroke="#606060" stroke-miterlimit="10"/>
<path d="M403.606 535.302L391.557 535.353C390.553 535.357 389.737 534.193 389.73 532.748L389.58 497.588C389.573 496.143 390.38 494.972 391.384 494.968L403.433 494.917C404.437 494.913 405.254 496.077 405.26 497.522L405.411 532.682C405.417 534.127 404.61 535.298 403.606 535.302Z" fill="#454D55" stroke="#606060" stroke-miterlimit="10"/>
<path d="M427.841 686.724L415.792 686.775C414.788 686.779 413.971 685.615 413.965 684.17L413.155 495.368C413.149 493.924 413.955 492.752 414.959 492.748L427.008 492.697C428.012 492.693 428.829 493.858 428.835 495.302L429.645 684.104C429.651 685.548 428.845 686.72 427.841 686.724Z" fill="#454D55" stroke="#606060" stroke-miterlimit="10"/>
<path d="M451.435 688.991L439.386 689.041C438.382 689.046 437.565 687.881 437.559 686.437L436.987 553.049C436.981 551.604 437.787 550.433 438.791 550.429L450.84 550.378C451.844 550.374 452.661 551.538 452.667 552.983L453.239 686.34C453.246 687.815 452.439 688.986 451.435 688.991Z" fill="#454D55" stroke="#606060" stroke-miterlimit="10"/>
<path d="M474.425 555.227L462.376 555.278C461.372 555.283 460.555 554.118 460.549 552.674L460.398 517.483C460.392 516.038 461.199 514.867 462.203 514.862L474.251 514.812C475.255 514.807 476.072 515.972 476.078 517.416L476.229 552.607C476.257 554.052 475.429 555.223 474.425 555.227Z" fill="#454D55" stroke="#606060" stroke-miterlimit="10"/>
<path d="M498.19 512.59L485.415 512.644C484.603 512.648 483.959 511.728 483.953 510.56L483.861 488.893C483.856 487.725 484.492 486.8 485.304 486.797L498.079 486.743C498.891 486.739 499.536 487.659 499.541 488.827L499.634 510.494C499.639 511.662 499.002 512.587 498.19 512.59Z" fill="#454D55" stroke="#606060" stroke-miterlimit="10"/>
<g clip-path="url(#clip0_1033_11432)" filter="url(#filter0_d_1033_11432)">
<mask id="path-41-inside-1_1033_11432" fill="white">
<path d="M383.202 -4.95605C383.119 10.7894 380.773 33.1528 369.239 54.3408C345.241 98.4323 296.891 109.085 253.81 117.873C179.061 133.11 170.562 110.09 117.902 130.58C105.493 135.408 42.6312 159.857 28.5377 216.348C26.8435 223.157 21.2768 245.467 31.3303 260.821C45.3493 282.221 80.4248 275.91 93.6992 273.527C119.829 268.826 133.597 257.803 155.137 245.997C155.137 245.997 199.931 221.442 249.156 213.172C263.994 210.683 351.897 195.912 399.958 255.527C405.227 262.06 431.236 294.334 423.23 322.236C410.607 366.211 322.556 367.619 313.386 367.767C294.397 368.074 296.975 365.321 222.16 358.237C177.664 354.023 161.3 353.525 148.621 366.708C136.52 379.288 130.348 401.63 135.589 420.711C142.31 445.203 165.181 454.627 172.824 457.771C202.295 469.906 216.705 453.462 263.119 451.418C295.011 450.02 322.072 448.824 342.244 467.301C358.804 482.464 364.054 511.499 373.894 568.953C385.39 636.075 380.335 649.607 395.304 674.84C410.98 701.259 433.163 714.484 448.364 723.548C477.556 740.956 504.645 745.531 520.972 746.844"/>
</mask>
<path d="M387.202 -4.93477C387.214 -7.14388 385.433 -8.94424 383.224 -8.956C381.015 -8.96775 379.214 -7.18645 379.202 -4.97734L387.202 -4.93477ZM369.239 54.3408L365.726 52.4284L365.726 52.4286L369.239 54.3408ZM253.81 117.873L254.609 121.793L254.61 121.792L253.81 117.873ZM117.902 130.58L116.452 126.852L116.451 126.852L117.902 130.58ZM28.5377 216.348L24.6566 215.38L24.656 215.382L28.5377 216.348ZM31.3303 260.821L27.9839 263.012L27.9843 263.013L31.3303 260.821ZM93.6992 273.527L94.4058 277.465L94.4075 277.464L93.6992 273.527ZM155.137 245.997L157.06 249.504L157.06 249.504L155.137 245.997ZM249.156 213.172L248.494 209.227L248.493 209.227L249.156 213.172ZM399.958 255.527L396.844 258.037L396.845 258.038L399.958 255.527ZM423.23 322.236L427.075 323.339L427.075 323.339L423.23 322.236ZM313.386 367.767L313.322 363.768H313.322L313.386 367.767ZM222.16 358.237L221.783 362.22H221.783L222.16 358.237ZM148.621 366.708L151.504 369.481L151.504 369.481L148.621 366.708ZM135.589 420.711L139.446 419.652L139.446 419.651L135.589 420.711ZM172.824 457.771L174.347 454.073L174.346 454.072L172.824 457.771ZM263.119 451.418L262.944 447.422L262.943 447.422L263.119 451.418ZM342.244 467.301L339.542 470.251L339.542 470.251L342.244 467.301ZM373.894 568.953L369.951 569.628V569.628L373.894 568.953ZM395.304 674.84L391.864 676.881L391.864 676.881L395.304 674.84ZM448.364 723.548L450.413 720.113L450.412 720.113L448.364 723.548ZM520.652 750.831C522.854 751.008 524.782 749.366 524.959 747.164C525.137 744.962 523.495 743.034 521.293 742.857L520.652 750.831ZM379.202 -4.97734C379.12 10.4411 376.815 32.0566 365.726 52.4284L372.752 56.2532C384.73 34.249 387.117 11.1377 387.202 -4.93477L379.202 -4.97734ZM365.726 52.4286C342.748 94.6462 296.421 105.098 253.011 113.954L254.61 121.792C297.361 113.071 347.735 102.218 372.752 56.253L365.726 52.4286ZM253.011 113.954C216.172 121.463 195.79 119.548 177.857 118.267C159.503 116.956 143.55 116.308 116.452 126.852L119.352 134.307C144.913 124.362 159.54 124.979 177.288 126.247C195.457 127.544 216.699 129.52 254.609 121.793L253.011 113.954ZM116.451 126.852C110.18 129.292 90.9663 136.761 71.5058 150.851C52.0649 164.927 32.0181 185.873 24.6566 215.38L32.4187 217.317C39.1508 190.333 57.5817 170.809 76.1975 157.331C94.7937 143.866 113.215 136.696 119.353 134.307L116.451 126.852ZM24.656 215.382C23.8032 218.81 21.897 226.429 21.532 235.214C21.1695 243.942 22.3012 254.334 27.9839 263.012L34.6767 258.63C30.3059 251.955 29.1942 243.515 29.5252 235.546C29.8537 227.636 31.5779 220.696 32.4193 217.314L24.656 215.382ZM27.9843 263.013C36.02 275.279 49.8776 279.253 62.532 280.084C75.2611 280.919 87.7958 278.651 94.4058 277.465L92.9925 269.59C86.3282 270.786 74.688 272.865 63.056 272.101C51.3493 271.333 40.6596 267.763 34.6763 258.629L27.9843 263.013ZM94.4075 277.464C121.381 272.611 136.034 261.029 157.06 249.504L153.215 242.489C131.159 254.578 118.277 265.041 92.9908 269.591L94.4075 277.464ZM155.137 245.997C157.06 249.504 157.06 249.505 157.059 249.505C157.059 249.505 157.059 249.505 157.06 249.504C157.06 249.504 157.062 249.503 157.064 249.502C157.068 249.5 157.074 249.496 157.084 249.491C157.102 249.481 157.132 249.465 157.172 249.443C157.252 249.4 157.375 249.334 157.538 249.246C157.866 249.071 158.358 248.81 159.005 248.474C160.299 247.8 162.211 246.824 164.663 245.624C169.569 243.223 176.629 239.931 185.215 236.382C202.413 229.273 225.612 221.183 249.819 217.116L248.493 209.227C223.475 213.43 199.664 221.753 182.159 228.989C173.393 232.612 166.178 235.976 161.147 238.438C158.631 239.669 156.659 240.676 155.311 241.377C154.637 241.728 154.119 242.003 153.766 242.192C153.59 242.286 153.455 242.359 153.362 242.409C153.316 242.434 153.281 242.453 153.256 242.467C153.244 242.473 153.234 242.479 153.227 242.482C153.223 242.484 153.221 242.486 153.219 242.487C153.218 242.488 153.216 242.488 153.216 242.488C153.215 242.489 153.214 242.489 155.137 245.997ZM249.817 217.117C257.156 215.886 282.383 211.653 311.639 215.034C340.903 218.416 373.719 229.353 396.844 258.037L403.072 253.016C378.136 222.086 342.97 210.601 312.558 207.087C282.137 203.572 255.994 207.969 248.494 209.227L249.817 217.117ZM396.845 258.038C399.45 261.269 407.036 270.689 412.991 282.651C419.006 294.732 422.97 308.638 419.385 321.132L427.075 323.339C431.495 307.932 426.458 291.75 420.153 279.085C413.788 266.301 405.735 256.318 403.072 253.016L396.845 258.038ZM419.385 321.132C416.591 330.867 409.568 338.492 399.921 344.483C390.256 350.485 378.24 354.662 366.09 357.544C341.8 363.306 317.86 363.694 313.322 363.768L313.451 371.767C318.082 371.692 342.753 371.302 367.936 365.328C380.523 362.343 393.46 357.913 404.142 351.279C414.841 344.634 423.558 335.592 427.075 323.339L419.385 321.132ZM313.322 363.768C304.16 363.916 300.321 363.345 289.257 361.812C278.127 360.27 260.01 357.803 222.537 354.255L221.783 362.22C259.125 365.755 277.126 368.207 288.159 369.736C299.257 371.274 303.623 371.926 313.451 371.767L313.322 363.768ZM222.538 354.255C200.396 352.158 184.784 350.929 173.106 351.964C161.127 353.027 152.886 356.503 145.738 363.936L151.504 369.481C157.034 363.731 163.315 360.864 173.813 359.933C184.611 358.976 199.429 360.102 221.783 362.22L222.538 354.255ZM145.738 363.935C132.648 377.542 126.121 401.345 131.732 421.77L139.446 419.651C134.574 401.915 140.391 381.033 151.504 369.481L145.738 363.935ZM131.731 421.769C139.018 448.322 163.741 458.359 171.302 461.47L174.346 454.072C166.622 450.894 145.602 442.083 139.446 419.652L131.731 421.769ZM171.301 461.47C187.096 467.974 198.99 466.755 212.469 463.82C225.804 460.917 240.53 456.417 263.295 455.414L262.943 447.422C239.294 448.463 223.609 453.207 210.767 456.003C198.07 458.768 188.023 459.704 174.347 454.073L171.301 461.47ZM263.294 455.414C295.647 453.996 320.817 453.099 339.542 470.251L344.945 464.352C323.327 444.549 294.375 446.044 262.944 447.422L263.294 455.414ZM339.542 470.251C347.008 477.087 352.201 487.282 356.739 503.355C361.282 519.442 365.018 540.826 369.951 569.628L377.836 568.278C372.929 539.626 369.121 517.766 364.438 501.181C359.752 484.582 354.04 472.678 344.945 464.351L339.542 470.251ZM369.951 569.628C375.688 603.127 377.255 622.972 379.334 638.148C381.421 653.391 384.015 663.65 391.864 676.881L398.744 672.799C391.624 660.797 389.261 651.674 387.26 637.062C385.249 622.384 383.595 601.901 377.836 568.278L369.951 569.628ZM391.864 676.881C408.101 704.247 431.092 717.907 446.315 726.984L450.412 720.113C435.234 711.062 413.858 698.271 398.744 672.799L391.864 676.881ZM446.315 726.984C476.191 744.8 503.928 749.486 520.652 750.831L521.293 742.857C505.362 741.575 478.921 737.113 450.413 720.113L446.315 726.984Z" fill="#F7931E" mask="url(#path-41-inside-1_1033_11432)"/>
</g>
<path d="M396.208 357.691C459.68 284.792 350.702 246.952 301.436 240.85C252.17 234.748 226.216 208.615 164.478 211.887C102.741 215.16 53.0577 261.554 74.6244 326.51C96.1911 391.467 138.528 393.997 127.567 453.357C116.606 512.718 101.752 529.871 161.454 555.422C221.156 580.973 301.61 514.76 328.186 463.377C354.763 411.995 332.737 430.589 396.208 357.691Z" fill="#343A40" stroke="#343A40" stroke-width="3" stroke-dasharray="2 2"/>
<path d="M117.416 446.88C121.138 451.591 125.292 455.802 130.258 458.791C132.656 460.302 135.333 461.484 138.184 461.601C145.03 461.789 148.089 457.328 146.786 450.167C145.663 444.258 143.064 438.584 140.214 433.403C138.709 430.859 136.859 428.496 134.189 427.251L134.246 427.024C140.329 428.324 143.619 435.023 146.239 440.517C149.248 447.31 151.559 459.261 142.568 461.742C137.176 463.166 131.158 462.18 126.508 458.76C122.571 455.794 119.259 451.709 117.237 446.997C117.229 447.005 117.416 446.88 117.416 446.88Z" fill="#DEDDDE"/>
<path d="M150.349 422.211C150.284 422.172 150.198 422.118 150.126 422.071C149.68 421.781 149.01 421.351 147.808 421.108L147.657 421.077C147.333 421.014 147.052 420.959 146.736 420.756C146.642 420.693 146.304 420.466 146.059 420.098C145.512 419.284 145.519 418.024 145.685 417.516C145.771 417.531 145.872 417.555 145.958 417.578C146.505 417.703 146.836 417.852 147.297 418.056C147.448 418.118 147.599 418.189 147.772 418.259C148.37 418.51 148.715 418.611 149.025 418.697C149.327 418.783 149.608 418.862 150.169 419.104C150.58 419.277 150.997 419.457 151.155 419.558C151.249 419.77 151.271 420.317 151.062 420.998C150.839 421.703 150.515 422.102 150.349 422.211Z" fill="#DEDDDE"/>
<path d="M146.779 419.105C146.815 419.12 146.844 419.136 146.88 419.151C147.031 419.222 147.196 419.292 147.369 419.371C148.024 419.645 148.406 419.754 148.737 419.856C149.025 419.942 149.255 420.005 149.766 420.224C149.874 420.271 149.997 420.318 150.104 420.372C150.083 420.474 150.054 420.584 150.018 420.685C149.543 420.427 148.888 420.153 147.995 419.973L147.837 419.942C147.549 419.887 147.42 419.856 147.268 419.762C147.189 419.707 147.024 419.574 146.923 419.433C146.865 419.332 146.815 419.222 146.779 419.105ZM145.454 416.311C145.354 416.311 145.267 416.326 145.195 416.365C144.346 416.827 144.209 419.347 145.181 420.795C145.57 421.382 146.095 421.711 146.189 421.773C146.736 422.118 147.211 422.18 147.607 422.259C149.356 422.611 149.723 423.401 150.342 423.401C150.414 423.401 150.493 423.393 150.58 423.362C151.861 422.986 152.825 420.012 151.99 418.807C151.818 418.557 151.4 418.377 150.565 418.017C149.349 417.492 149.277 417.633 148.161 417.164C147.463 416.866 147.024 416.616 146.181 416.428C145.85 416.365 145.62 416.311 145.454 416.311Z" fill="#DEDDDE"/>
<path d="M139.04 460.114C135.498 459.519 132.748 456.851 130.682 453.83C129.207 451.959 127.357 450.425 125.867 448.57C123.527 445.886 121.505 443.076 119.23 440.275C119.179 440.212 119.251 440.11 119.316 440.149C124.06 442.662 126.903 447.623 129.883 452.116C130.92 453.579 132.331 454.644 133.706 455.685C135.052 456.741 136.333 457.852 137.701 458.901C138.176 459.222 138.644 459.566 139.105 459.966C139.155 460.012 139.112 460.13 139.04 460.114Z" fill="#DEDDDE"/>
<path d="M264.364 276.399C246.548 275.859 228.718 276.892 211.046 279.334C208.62 280.069 205.337 281.682 202.659 283.223C197.541 285.243 192.488 287.45 187.572 289.946C172.872 297.311 159.073 307.36 148.779 321.079C148.225 322.417 146.202 325.438 145.151 326.464C135.434 342.218 130.568 360.79 121.606 377.022C118.719 382.351 116.027 388.346 113.623 393.707C108.778 407.708 105.906 422.359 103.17 436.994C98.7146 442.825 91.761 445.627 88.8384 452.631C87.0244 458.439 90.7316 464.113 96.5623 465.2C98.3763 465.576 100.262 465.49 102.069 465.013C106.395 464.371 110.462 460.497 111.938 457.335C112.679 454.079 114.378 451.27 115.71 448.366C117.013 446.629 118.114 444.727 119.136 442.716C120.166 440.72 121.13 438.599 122.289 436.572C126.428 430.835 130.294 424.864 133.872 418.697C135.657 415.605 137.37 412.475 138.997 409.282C141.531 404.539 143.553 399.233 147.102 395.163C153.271 388.26 162.838 387.274 171.174 388.448C174.535 388.894 177.854 389.669 181.115 390.608L181.064 390.835C170.123 388.323 156.547 386.648 148.081 396.173C144.734 400.227 142.949 405.415 140.48 410.158C135.801 419.722 129.826 429.708 124.067 437.895C121.944 441.823 120.238 446.175 117.538 449.79C116.984 451.207 114.529 455.66 114.184 457.938L114.155 458.063L114.098 458.196C111.837 463.08 107.396 466.547 102.458 467.478C93.8629 469.967 83.49 462.563 86.8733 451.731C88.3489 448.092 91.0699 445.29 93.8557 442.903C96.5695 440.563 99.3841 438.482 101.522 435.813L101.306 436.29C104.207 421.702 107.338 407.043 112.521 393.167C115.17 387.556 117.834 381.929 120.878 376.529C123.959 371.199 126.479 365.533 128.933 359.827C133.792 348.354 138.075 336.528 144.345 325.814C145.749 324.225 146.944 322.308 147.851 320.336C151.234 315.616 155.028 311.234 159.145 307.242C171.426 295.229 186.557 287.285 202.04 281.415C204.301 280.234 207.849 278.215 210.873 277.502C224.19 275.835 237.622 275.092 251.025 275.444C255.488 275.561 259.951 275.781 264.407 276.148L264.364 276.399Z" fill="#DEDDDE"/>
<path d="M321.346 320.352C319.518 317.715 317.783 315.061 315.969 312.471C314.162 309.88 312.262 307.384 310.426 304.825C309.476 303.572 308.598 302.25 307.619 301.013C307.137 300.387 306.654 299.761 306.158 299.151C305.639 298.564 305.114 297.977 304.581 297.405C303.53 296.231 302.343 295.23 301.184 294.197C300.608 293.68 299.974 293.234 299.362 292.764C298.743 292.303 298.124 291.841 297.498 291.395C294.935 289.704 292.351 288.076 289.717 286.582C287.075 285.095 284.354 283.811 281.618 282.551C278.876 281.314 276.076 280.227 273.24 279.233C270.396 278.254 267.502 277.386 264.565 276.58L264.594 276.345C270.677 276.454 276.745 277.863 282.475 280.219C285.311 281.479 288.075 282.934 290.703 284.633C291.034 284.844 291.372 285.04 291.696 285.251L292.661 285.932C293.301 286.394 293.942 286.84 294.568 287.309C295.209 287.755 295.799 288.295 296.397 288.804L298.189 290.346L301.644 293.57C302.199 294.134 302.782 294.658 303.35 295.206L304.214 296.004L305.056 296.834C305.625 297.382 306.201 297.914 306.777 298.454L308.476 300.105C309.642 301.178 310.707 302.359 311.787 303.533C315.89 308.433 319.259 314.083 321.534 320.219L321.346 320.352Z" fill="#DEDDDE"/>
<path d="M181.381 375.112C181.302 380.121 181.093 385.13 181.086 390.131C181.093 395.124 181.273 400.133 182.144 405.001C182.986 409.869 184.469 414.604 186.816 418.814C187.435 419.84 188.068 420.865 188.731 421.859C189.458 422.806 190.156 423.769 190.912 424.708C192.402 426.609 193.985 428.386 195.605 430.155C198.844 433.684 202.256 437.081 205.359 440.853C208.469 444.61 211.276 448.797 213.198 453.501C214.141 455.856 214.911 458.345 215.134 461.006C215.242 462.329 215.206 463.698 214.89 465.068C214.566 466.414 213.99 467.658 213.32 468.754C212.658 469.85 211.981 470.797 211.542 471.814C211.089 472.824 210.851 473.919 210.772 475.062C210.607 477.34 211.118 479.703 212.125 481.714C213.14 483.718 214.724 485.346 216.617 486.52C217.085 486.809 217.589 487.115 218.071 487.349L218.791 487.694C219.036 487.796 219.288 487.866 219.54 487.96C220.547 488.265 221.599 488.453 222.664 488.398C224.787 488.343 226.904 487.6 228.826 486.473C230.748 485.322 232.497 483.828 233.994 482.028C234.786 481.167 235.455 480.196 236.154 479.249C236.78 478.247 237.442 477.269 237.975 476.197C239.076 474.084 240.005 471.853 240.653 469.505C241.315 467.165 241.776 464.755 242.071 462.313C242.337 459.871 242.438 457.398 242.409 454.925C242.344 449.971 241.66 445.048 240.761 440.157C239.861 435.265 238.716 430.421 237.608 425.553C236.478 420.701 235.383 415.809 234.62 410.847C233.865 405.893 233.447 400.845 233.656 395.805V395.782V395.758C234.174 392.487 234.664 389.192 235.398 385.944C235.779 384.324 236.154 382.704 236.715 381.123C237.298 379.558 237.968 378.055 238.716 376.584C240.199 373.641 241.999 370.894 244.065 368.397C246.131 365.901 248.47 363.678 251.026 361.776L251.04 361.769L251.062 361.753C255.575 359.068 260.607 357.378 265.753 356.908C270.9 356.431 276.155 357.167 281.014 359.147L281.043 359.155L281.072 359.17C282.727 360.07 284.333 360.845 286.089 361.456C287.867 362.207 289.559 363.083 291.193 364.101C292.805 365.15 294.36 366.308 295.836 367.576C297.29 368.867 298.679 370.237 299.982 371.7C302.58 374.635 304.877 377.867 306.892 381.287C307.396 382.14 307.893 383.017 308.354 383.901L309.656 386.601C310.47 388.425 311.283 390.248 311.982 392.127C313.414 395.868 314.623 399.718 315.538 403.647C316.452 407.584 317.107 411.583 317.496 415.621C318.295 423.698 317.863 431.908 316.409 439.875L316.351 440.172L316.149 440.423C313.788 443.389 312.104 447.044 311.449 450.879C311.147 452.796 311.118 454.745 311.442 456.608C311.766 458.47 312.464 460.223 313.522 461.703C313.81 462.047 314.048 462.446 314.371 462.759L315.329 463.714C316.005 464.293 316.74 464.786 317.517 465.162C319.079 465.929 320.836 466.242 322.628 466.226C323.528 466.226 324.435 466.148 325.342 466.023C325.802 465.96 326.242 465.89 326.681 465.804L327.948 465.42C329.625 464.833 331.244 463.972 332.67 462.798C334.088 461.609 335.34 460.192 336.434 458.619C337.507 457.03 338.392 455.277 339.141 453.462C340.588 449.791 341.466 445.847 341.632 441.808L341.855 435.665C341.848 433.614 341.776 431.556 341.74 429.497C341.74 427.439 341.553 425.381 341.423 423.33L341.214 420.247L341.106 418.705L340.948 417.163C339.357 400.728 336.528 384.426 333.188 368.264C331.54 360.172 329.654 352.142 327.724 344.128C326.76 340.121 325.73 336.13 324.665 332.146C324.111 330.166 323.6 328.162 323.002 326.198L322.124 323.24L321.167 320.313L321.368 320.227L322.398 323.138L323.348 326.073C323.996 328.029 324.557 330.009 325.162 331.982C326.328 335.934 327.451 339.902 328.516 343.885C330.676 351.845 332.634 359.875 334.441 367.944C338.105 384.066 341.092 400.391 342.863 416.936L343.035 418.486L343.158 420.043L343.403 423.158C343.554 425.24 343.762 427.306 343.784 429.403C343.842 431.493 343.935 433.583 343.964 435.672L343.777 441.965C343.604 446.214 342.69 450.464 341.135 454.416C340.329 456.381 339.379 458.29 338.198 460.043C337.003 461.789 335.599 463.385 333.994 464.731C332.375 466.07 330.532 467.071 328.588 467.752L327.098 468.198C326.601 468.3 326.098 468.378 325.608 468.441C324.629 468.574 323.629 468.66 322.621 468.668C320.605 468.691 318.503 468.339 316.581 467.408C315.624 466.946 314.717 466.344 313.896 465.639L312.745 464.497C312.356 464.121 312.061 463.644 311.715 463.213C310.427 461.421 309.57 459.276 309.181 457.062C308.785 454.847 308.85 452.593 309.203 450.425C309.973 446.097 311.852 442.106 314.494 438.826L314.242 439.374C315.696 431.65 316.164 423.69 315.437 415.825C315.084 411.896 314.465 407.991 313.601 404.156C312.737 400.313 311.564 396.564 310.211 392.894C309.548 391.055 308.771 389.262 307.994 387.47L306.755 384.841C306.324 383.98 305.856 383.142 305.373 382.305C303.451 378.955 301.249 375.793 298.772 372.929C297.534 371.497 296.203 370.166 294.821 368.898C293.424 367.654 291.956 366.519 290.422 365.486C288.875 364.484 287.255 363.608 285.607 362.872C283.857 362.23 282.101 361.354 280.481 360.43L280.539 360.462C275.896 358.466 270.828 357.668 265.833 358.051C260.837 358.435 255.913 359.992 251.465 362.551L251.501 362.528C248.981 364.336 246.671 366.496 244.641 368.937C242.611 371.371 240.825 374.064 239.357 376.944C238.623 378.376 237.946 379.871 237.377 381.381C236.823 382.892 236.442 384.504 236.06 386.101C235.326 389.309 234.8 392.573 234.318 395.86L234.325 395.813C234.152 400.79 234.592 405.776 235.376 410.683C236.161 415.598 237.277 420.45 238.443 425.287C239.63 430.123 240.861 434.96 241.855 439.875C242.841 444.782 243.626 449.783 243.777 454.855C243.849 457.39 243.784 459.934 243.546 462.47C243.287 464.997 242.841 467.518 242.193 469.983C241.56 472.448 240.617 474.827 239.479 477.089C238.932 478.232 238.256 479.296 237.593 480.368C236.859 481.386 236.146 482.419 235.311 483.342C233.728 485.268 231.82 486.927 229.711 488.202C227.595 489.455 225.219 490.331 222.721 490.417C221.476 490.488 220.224 490.276 219.021 489.916C218.726 489.815 218.424 489.721 218.129 489.603L217.265 489.196C216.696 488.922 216.193 488.625 215.66 488.296C213.558 486.997 211.622 485.111 210.434 482.693C209.26 480.306 208.692 477.59 208.893 474.866C209.001 473.52 209.296 472.135 209.872 470.899C210.434 469.646 211.19 468.613 211.794 467.619C212.406 466.633 212.874 465.616 213.148 464.536C213.407 463.471 213.45 462.305 213.364 461.139C213.184 458.799 212.5 456.467 211.614 454.236C209.822 449.76 207.159 445.721 204.142 442.019C201.112 438.318 197.786 434.866 194.569 431.25C192.963 429.443 191.372 427.588 189.897 425.655C189.148 424.692 188.435 423.675 187.701 422.688C187.032 421.648 186.391 420.575 185.765 419.495C183.404 415.081 181.935 410.166 181.172 405.181C180.402 400.18 180.345 395.124 180.46 390.115C180.575 385.099 180.928 380.098 181.18 375.105L181.381 375.112Z" fill="#DEDDDE"/>
<path d="M277.242 359.123C275.09 362.191 272.613 364.837 270 367.396C267.373 369.924 264.206 371.7 261.614 374.267C259.851 375.942 258.253 377.844 256.518 379.566C253.847 381.186 251.184 382.821 248.42 384.23C244.64 385.31 240.789 386.101 236.888 386.531L236.83 386.304C238.579 385.388 240.372 384.629 242.171 383.901C243.971 383.189 245.785 382.524 247.613 381.921L247.405 382.007C248.729 381.24 250.082 380.536 251.457 379.863C252.825 379.19 254.193 378.509 255.575 377.867L255.402 377.985C257.288 376.506 259.303 375.199 261.161 373.672C264.969 370.722 267.618 366.386 271.368 363.357C273.182 361.769 275.054 360.25 277.098 358.943L277.242 359.123Z" fill="#DEDDDE"/>
<path d="M240.904 407.881C246.209 414.753 252.45 423.479 257.316 429.771C261.009 432.996 264.932 436.173 268.747 439.194C270.036 440.384 272.534 442.771 273.801 443.984L273.959 444.133C274.679 445.808 274.974 447.748 274.636 449.619C274.312 451.356 273.419 452.718 272.771 454.252C271.54 457.093 270.432 460.083 270.878 463.268C271.432 469.709 277.414 474.632 283.267 473.2C285.39 472.722 287.377 471.619 288.932 469.967L290.573 468.308L292.207 466.665C294.712 463.878 295.77 459.887 296.065 456.091C296.339 452.945 295.252 449.963 294.402 446.981C293.02 442.567 291.653 437.535 290.019 433.301C287.722 427.408 284.433 421.953 281.661 416.279C279.055 411.341 275.672 404.195 273.39 398.998C257.633 364.727 257.669 364.085 274.974 398.098C279.667 408.038 285.404 418.016 290.184 427.87C292.236 432.268 293.618 437.05 294.935 441.699C295.813 444.798 296.756 447.874 297.419 451.129C298.556 456.506 296.958 462.384 293.848 466.665C293.272 467.416 291.912 468.512 291.257 469.169C290.191 470.053 288.881 471.548 287.694 472.229C280.524 477.042 271.296 472.487 269.971 463.432C269.323 460.098 270.338 456.702 271.497 453.657C272.066 452.108 272.865 450.683 273.038 449.329C273.225 447.921 272.937 446.465 272.368 445.142L272.606 445.487L270.057 443.178C270.137 443.241 267.293 440.634 267.581 440.893C263.694 437.833 259.713 434.538 256.078 431.118C252.119 425.741 248.002 419.55 244.431 413.9C243.186 411.951 241.933 410.002 240.717 408.03L240.904 407.881Z" fill="#DEDDDE"/>
<path d="M145.022 443.076C151.126 446.84 158.209 447.161 165.055 446.911L172.016 446.715C174.852 446.363 177.544 444.289 176.781 440.501L176.709 440.07H177.105C179.012 440.024 180.394 441.753 181.273 443.373C181.993 444.657 182.979 446.84 183.987 447.819C186.636 449.626 190.249 452.131 193.503 453.43C196.569 454.729 200.262 454.995 202.026 451.528L201.875 452.381C200.579 443.35 196.26 434.882 192.481 426.805L192.668 426.68C193.963 428.558 195.223 430.46 196.418 432.424C200.111 438.474 203.221 445.173 204.221 452.436C199.175 461.867 188.543 453.446 183.245 448.773C182.554 448.03 182.144 447.098 181.733 446.253C180.69 444.085 179.754 440.822 177.098 440.806L177.422 440.376C177.767 442.121 177.573 444.117 176.471 445.541C175.384 446.997 173.743 447.826 172.109 448.249C169.791 448.593 167.466 448.891 165.112 449.008C158.13 449.329 150.37 448.437 144.885 443.279C144.899 443.264 145.022 443.076 145.022 443.076Z" fill="#DEDDDE"/>
<path d="M263.875 325.595C266.466 326.879 269.266 327.685 272.081 327.763C274.895 327.842 277.681 327.184 280.424 326.409C289.292 323.6 297.952 319.765 306.46 315.82C311.542 313.112 316.466 309.927 321.174 306.507C324.183 304.425 327.149 302.445 329.668 299.667L332.749 296.419C336.78 292.068 340.818 287.607 343.899 282.402C345.36 279.749 346.735 277.01 347.945 274.2C352.048 264.683 354.934 253.006 350.335 243.114C349.298 240.813 347.585 238.903 346.699 236.524C346.318 235.624 345.929 234.802 345.447 234.004L346.671 234.09L344.878 236.54L344.993 236.344C341.718 244.656 342.193 254.04 339.379 262.648C336.571 269.551 332.403 275.789 327.35 280.946C324.759 283.482 322.369 285.947 319.806 288.452C317.222 290.941 314.537 293.335 311.744 295.558L305.928 299.448L305.884 299.479C298.521 303.416 291.185 307.368 283.361 310.193C276.846 312.439 263.068 315.578 262.543 304.496L262.759 304.48C263.738 314.897 276.839 311.085 282.914 308.761C290.358 305.709 298.081 301.412 304.841 297.562L310.585 293.555C312.917 291.653 315.89 288.984 318.28 286.605C320.749 284.139 323.312 281.549 325.774 279.138C330.625 274.177 334.721 268.33 337.485 261.733C340.134 253.797 340.055 243.811 343.532 235.64L343.582 235.522L343.647 235.444L345.512 233.057L346.195 232.181L346.735 233.135C347.729 234.842 348.211 236.798 349.176 238.481C349.838 239.537 350.831 241.165 351.393 242.558C355.827 252.881 352.724 264.738 348.564 274.513C347.347 277.354 346.023 280.125 344.605 282.856C340.861 289.54 335.758 295.284 330.791 300.888C327.861 304.41 324.017 306.875 320.447 309.528C315.602 312.948 310.578 316.18 305.229 318.583C297.225 322.121 289.105 325.345 280.712 327.622C275.133 329.235 268.856 329.055 263.788 325.807C263.774 325.807 263.875 325.595 263.875 325.595Z" fill="#DEDDDE"/>
<path d="M176.694 423.518C176.586 423.518 176.205 423.502 175.852 423.346C174.996 422.97 174.391 421.89 174.29 421.358C174.376 421.319 174.47 421.287 174.549 421.256C175.082 421.045 175.427 420.982 175.917 420.896C176.075 420.865 176.241 420.841 176.421 420.802C177.054 420.677 177.393 420.56 177.695 420.466C177.99 420.372 178.271 420.278 178.868 420.16C179.35 420.067 179.732 419.996 179.926 419.988C180.106 420.121 180.394 420.567 180.538 421.272C180.682 421.976 180.603 422.501 180.517 422.688C180.445 422.696 180.344 422.696 180.258 422.696C179.739 422.704 178.955 422.72 177.817 423.205L177.673 423.267C177.371 423.401 177.105 423.51 176.73 423.526L176.694 423.518Z" fill="#DEDDDE"/>
<path d="M179.422 421.241C179.451 421.342 179.48 421.444 179.502 421.554C178.969 421.608 178.285 421.742 177.436 422.102L177.285 422.164C177.011 422.282 176.889 422.336 176.694 422.336C176.572 422.336 176.385 422.313 176.255 422.25C176.162 422.211 176.068 422.141 175.974 422.062C176.01 422.055 176.046 422.047 176.082 422.039C176.248 422.008 176.421 421.976 176.608 421.945C177.299 421.804 177.673 421.687 178.004 421.577C178.292 421.483 178.515 421.405 179.055 421.303C179.178 421.288 179.3 421.264 179.422 421.241ZM179.962 418.807C179.682 418.807 179.286 418.885 178.688 419.002C177.407 419.253 177.407 419.409 176.226 419.652C175.492 419.801 174.996 419.832 174.182 420.153C173.685 420.348 173.433 420.45 173.311 420.661C172.814 421.538 173.916 423.761 175.442 424.442C175.967 424.676 176.486 424.7 176.694 424.7C176.73 424.7 176.759 424.7 176.774 424.7C177.407 424.676 177.839 424.465 178.213 424.301C180.07 423.518 180.725 424.191 181.28 423.549C182.187 422.493 181.568 419.417 180.279 418.869C180.193 418.822 180.092 418.807 179.962 418.807Z" fill="#DEDDDE"/>
<path d="M201.227 452.601C199.888 452.71 198.513 452.89 197.189 452.789C195.857 451.912 194.576 450.957 193.345 449.924C191.272 447.412 188.673 445.518 186.694 442.904C186.089 442.176 185.024 440.94 184.685 440.439C183.786 439.75 182.943 438.975 182.043 438.302C178.567 435.579 178.509 435.453 182.353 437.801C183.325 438.435 184.282 439.108 185.196 439.836C187.313 442.356 189.048 445.095 191.329 447.388C192.013 448.132 192.949 449.001 193.597 449.572C194.943 450.386 196.239 451.27 197.491 452.241L197.333 452.186C198.629 452.249 199.931 452.342 201.22 452.515C201.27 452.522 201.27 452.601 201.227 452.601Z" fill="#DEDDDE"/>
<path d="M167.639 394.451C167.085 394.342 166.473 394.209 166.243 394.162L166.164 394.146C165.761 394.06 165.559 394.044 165.3 394.037C165.106 394.029 164.839 394.013 164.321 393.95C163.709 393.872 163.342 393.833 163.162 393.778C162.313 393.543 161.449 392.831 161.341 392.409C161.391 392.315 161.694 392.056 162.233 391.712C162.658 391.438 163.169 391.258 163.752 391.172C164.112 391.117 164.429 390.859 164.58 390.499C164.731 390.523 164.875 390.562 165.005 390.601C165.199 390.656 165.286 390.702 165.631 390.906C165.833 391.023 166.085 391.172 166.445 391.368L166.653 391.485C166.876 391.61 167.107 391.743 167.409 391.861C167.675 391.963 167.899 392.025 168.1 392.08C168.388 392.158 168.496 392.189 168.647 392.299C169.18 392.698 169.389 393.465 169.209 393.833C169.158 393.943 168.921 394.162 167.963 394.397C167.891 394.412 167.805 394.436 167.719 394.467C167.683 394.467 167.654 394.459 167.639 394.451Z" fill="#DEDDDE"/>
<path d="M164.947 391.837C164.99 391.861 165.048 391.892 165.112 391.939C165.321 392.064 165.587 392.221 165.962 392.417C166.027 392.456 166.091 392.487 166.149 392.526C166.379 392.659 166.667 392.816 167.042 392.964C167.366 393.09 167.639 393.168 167.833 393.223C167.841 393.223 167.841 393.223 167.848 393.231C167.79 393.246 167.747 393.254 167.711 393.262C167.697 393.262 167.682 393.27 167.661 393.277C167.15 393.176 166.631 393.066 166.437 393.019L166.365 393.004C165.911 392.91 165.667 392.886 165.343 392.87C165.156 392.863 164.918 392.847 164.429 392.784C163.939 392.722 163.522 392.675 163.414 392.644C163.32 392.62 163.226 392.581 163.133 392.542C163.356 392.448 163.615 392.377 163.896 392.338C164.292 392.268 164.652 392.096 164.947 391.837ZM164.623 389.349C164.544 389.349 164.472 389.356 164.393 389.372C163.845 389.474 163.651 389.896 163.601 390.006C163.126 390.076 162.391 390.249 161.693 390.687C161.139 391.039 160.038 391.736 160.297 392.722C160.563 393.755 161.895 394.639 162.895 394.913C163.14 394.984 163.493 395.023 164.198 395.109C165.372 395.258 165.328 395.156 165.955 395.297C166.084 395.328 166.804 395.484 167.452 395.61C167.509 395.618 167.603 395.641 167.733 395.649C167.819 395.657 167.898 395.657 167.97 395.657C168.345 395.657 168.589 395.571 168.589 395.571C168.553 395.571 168.164 395.657 167.999 395.657C167.963 395.657 167.934 395.649 167.927 395.641C167.862 395.547 169.655 395.422 170.158 394.389C170.634 393.418 170.187 392.017 169.251 391.329C168.755 390.961 168.395 390.992 167.776 390.75C167.452 390.624 167.229 390.476 166.926 390.311C165.94 389.771 165.782 389.599 165.271 389.458C165.084 389.411 164.86 389.349 164.623 389.349Z" fill="#DEDDDE"/>
<g clip-path="url(#clip1_1033_11432)">
<path d="M371.429 691.085C364.981 686.305 357.039 682.184 348.134 679.301C339.235 676.408 330.519 675.121 322.723 675.276C307.527 675.566 295.832 681.314 293.086 691.355C292.269 694.348 292.303 697.493 293.099 700.69C296.326 713.696 312.028 727.432 333.11 734.278C354.191 741.124 374.23 738.993 383.462 730.032C385.728 727.835 387.34 725.218 388.159 722.233C390.903 712.184 384.004 700.385 371.429 691.085ZM379.388 722.215C373.971 731.956 355.031 734.693 334.785 728.116C314.091 721.397 299.416 707.346 300.466 695.815C300.533 695.091 300.659 694.382 300.852 693.687C304.1 681.807 324.553 677.977 346.539 685.112C368.525 692.248 383.72 707.661 380.472 719.541C380.219 720.487 379.849 721.375 379.388 722.215Z" stroke="#DEDDDE" stroke-miterlimit="10"/>
<path d="M380.482 719.547C380.227 720.485 379.859 721.381 379.391 722.223C373.974 731.964 355.034 734.701 334.788 728.124C314.094 721.405 299.419 707.354 300.468 695.824C300.535 695.099 300.662 694.391 300.855 693.695C304.103 681.816 324.555 677.985 346.542 685.12C368.528 692.256 383.723 707.67 380.482 719.547Z" stroke="#DEDDDE" stroke-miterlimit="10"/>
<path d="M388.155 722.218L383.47 739.352C380.664 749.609 368.494 755.404 352.789 755.442C345.264 755.46 336.924 754.166 328.423 751.405C319.921 748.644 312.293 744.759 306.005 740.255C292.876 730.854 285.603 718.744 288.402 708.49L293.086 691.355C292.269 694.348 292.303 697.494 293.099 700.691C296.326 713.697 312.027 727.433 333.109 734.279C354.191 741.124 374.23 738.993 383.462 730.032C385.724 727.82 387.337 725.211 388.155 722.218Z" stroke="#DEDDDE" stroke-miterlimit="10"/>
<path d="M380.482 719.547C380.227 720.485 379.859 721.381 379.391 722.223C373.974 731.964 355.034 734.701 334.788 728.124C314.094 721.405 299.419 707.354 300.468 695.824C300.535 695.099 300.662 694.391 300.855 693.695C304.103 681.816 324.555 677.985 346.542 685.12C368.528 692.256 383.723 707.67 380.482 719.547Z" stroke="#DEDDDE" stroke-miterlimit="10"/>
<path d="M379.388 722.216C373.971 731.957 355.032 734.694 334.785 728.117C314.092 721.398 299.417 707.347 300.466 695.816C305.883 686.075 324.823 683.338 345.069 689.915C365.765 696.642 380.437 710.685 379.388 722.216Z" stroke="#DEDDDE" stroke-miterlimit="10"/>
<path d="M318.438 694.619C320.261 694.868 322.198 695.133 324.189 695.424L323.844 695.576L323.212 693.116L323.132 692.815C326.324 693.294 329.534 693.784 332.732 694.287C332.788 694.527 333.243 696.588 333.313 696.883L332.359 696.257L335.776 696.785L334.964 697.135L334.514 695.004L334.397 694.475C334.768 694.538 342.955 695.88 343.541 695.979L344.555 696.149C344.608 696.466 345.026 698.685 345.086 699.06L344.096 698.36C351.33 699.968 358.413 704.205 357.782 708.194C357.626 709.384 356.817 710.367 355.614 711.115L355.512 710.821C359.707 713.351 361.896 716.839 360.128 719.076C358.472 721.347 353.819 722.151 348.818 721.684L349.414 721.377L349.818 723.102L349.935 723.571C350.44 723.661 340.935 722.133 340.947 722.147L339.992 721.993L339.861 721.442L339.4 719.563L340.542 720.301L337.257 719.766L338.22 719.36C338.285 719.725 338.641 721.474 338.712 721.829C338.396 721.766 330.158 720.44 329.532 720.337L328.403 720.152C328.3 719.764 327.859 718.05 327.753 717.621L329.073 718.466L323.162 717.479L321.958 717.275L321.834 716.602C321.524 714.993 321.268 713.384 320.973 711.771C321.689 711.888 325.275 712.517 326.075 712.651L325.07 713.079C324.306 708.492 323.62 703.905 323.019 699.343L323.649 699.754C322.333 699.516 321.015 699.27 319.695 699.017L319.832 699.025C319.585 699.017 319.178 699.025 318.939 699.015L318.912 698.706L318.438 694.619ZM318.61 694.736L319.721 698.846L319.115 698.522C319.234 698.527 319.446 698.495 319.563 698.518C321.054 698.735 322.549 698.968 324.05 699.19L324.129 699.517C324.677 701.84 325.258 704.17 325.772 706.486C326.351 709.014 326.872 711.534 327.425 714.053L326.28 713.865L322.345 713.225L323.383 712.778C323.663 714.183 323.964 715.58 324.227 716.981L322.884 716.109C323.778 716.273 329.23 717.164 329.96 717.303C330.067 717.793 330.445 719.329 330.563 719.832L329.264 719.006L337.358 720.412L336.375 720.833C336.296 720.36 336.048 718.809 335.975 718.386C336.677 718.508 339.559 719.007 340.311 719.139L341.335 719.314L341.444 719.872L341.816 721.744L340.731 721.04L348.89 722.485L348.133 722.809L347.896 721.117L347.84 720.731L348.498 720.807C355.585 721.775 362.092 719.53 359.433 715.015C358.612 713.559 356.893 712.102 354.816 710.869C355.974 710.101 356.761 709.124 356.764 707.923C356.886 703.999 349.9 700.513 343.203 699.207C343.148 698.821 342.72 696.769 342.648 696.354L343.774 697.089L335.586 695.687L336.448 695.313C336.519 695.728 336.823 697.579 336.884 697.929L335.985 697.774C335.33 697.654 332.262 697.137 331.677 697.038L331.605 696.563L331.285 694.443L332.153 695.01C329.39 694.516 326.624 694.006 323.848 693.49L324.349 693.273L324.635 695.678L324.661 695.893L324.295 695.82L318.61 694.736Z" fill="#DEDDDE"/>
<path d="M331.522 700.808C335.757 701.122 340.384 701.638 344.857 702.7C348.142 703.767 350.434 706.279 348.337 707.368C347.707 707.72 346.759 707.95 345.646 707.88C341.376 707.346 337.091 706.723 332.75 705.833L331.668 705.616C331.377 703.933 331.405 702.114 331.522 700.808ZM331.702 700.923C332.487 702.657 333.233 704.069 333.702 705.414L332.543 704.672C336.826 705.228 341.15 706.054 345.49 706.969C349.3 707.433 349.746 704.643 344.705 703.46C341.203 703.233 335.953 701.918 331.702 700.923Z" fill="#DEDDDE"/>
<path d="M333.664 709.679C334.351 711.341 335.151 713.164 335.503 714.751L334.415 714.039C339.308 714.754 344.31 716.293 349.161 716.79L348.984 716.777C349.763 716.686 350.389 716.463 350.751 716.135C351.962 715.18 350.374 713.449 347.947 712.644L348.395 712.76C343.379 711.938 338.904 710.868 333.664 709.679ZM333.491 709.562C338.096 709.965 343.485 710.592 348.397 711.465C352.134 712.75 354.622 715.706 352.054 716.857C351.318 717.2 350.323 717.368 349.247 717.32C345.52 716.487 341.895 716.127 338.272 715.715C336.74 715.52 335.152 715.239 333.59 714.933C333.27 713.079 333.25 711.258 333.491 709.562Z" fill="#DEDDDE"/>
<path d="M471.246 597.823C471.975 598.4 472.626 599.07 473.207 599.831C479.858 608.629 475.961 628.988 463.572 647.596C450.898 666.619 433.874 677.021 424.224 672.108C423.622 671.8 423.051 671.431 422.504 671.003C413.287 663.724 416.72 641.444 430.186 621.228C443.652 601.012 462.03 590.545 471.246 597.823Z" stroke="#DEDDDE" stroke-miterlimit="10"/>
<path d="M443.587 597.662C437.312 602.699 431.116 609.486 425.67 617.667C420.223 625.848 416.223 634.371 413.777 642.431C408.996 658.138 410.118 672.055 417.908 678.205C420.231 680.038 422.972 681.044 426 681.292C438.335 682.298 455.436 670.731 468.339 651.361C481.243 631.991 486.026 610.701 481.314 598.24C480.161 595.181 478.425 592.657 476.102 590.824C468.312 584.674 455.811 587.837 443.587 597.662ZM473.207 599.831C479.858 608.629 475.962 628.989 463.572 647.596C450.899 666.619 433.874 677.021 424.224 672.108C423.622 671.801 423.051 671.431 422.504 671.003C413.288 663.725 416.72 641.444 430.186 621.228C443.652 601.012 462.028 590.537 471.252 597.813C471.982 598.398 472.636 599.076 473.207 599.831Z" stroke="#DEDDDE" stroke-miterlimit="10"/>
<path d="M476.101 590.824L489.406 601.327C497.375 607.618 498.364 622.04 493.203 638.184C490.733 645.917 486.849 654.051 481.644 661.865C476.438 669.678 470.548 676.223 464.56 681.187C452.076 691.54 439.173 695.001 431.205 688.71L417.9 678.207C420.223 680.04 422.965 681.047 425.993 681.294C438.328 682.3 455.428 670.734 468.332 651.364C481.236 631.994 486.019 610.703 481.306 598.242C480.153 595.183 478.425 592.657 476.101 590.824Z" stroke="#DEDDDE" stroke-miterlimit="10"/>
<path d="M471.246 597.823C471.975 598.4 472.626 599.07 473.207 599.831C479.858 608.629 475.961 628.988 463.572 647.596C450.898 666.619 433.874 677.021 424.224 672.108C423.622 671.8 423.051 671.431 422.504 671.003C413.287 663.724 416.72 641.444 430.186 621.228C443.652 601.012 462.03 590.545 471.246 597.823Z" stroke="#DEDDDE" stroke-miterlimit="10"/>
<path d="M473.207 599.831C479.858 608.629 475.961 628.989 463.572 647.596C450.899 666.619 433.874 677.021 424.224 672.108C417.573 663.311 421.469 642.951 433.859 624.343C446.532 605.32 463.557 594.918 473.207 599.831Z" stroke="#DEDDDE" stroke-miterlimit="10"/>
<path d="M444.435 628.827C444.882 627.991 445.195 627.069 445.847 626.35C446.013 626.177 446.187 626.002 446.424 625.885C446.651 625.762 446.973 625.729 447.236 625.887C447.496 626.036 447.674 626.289 447.787 626.537C447.917 626.787 448.001 627.044 448.061 627.299C448.306 628.337 448.282 629.374 448.167 630.388C448.034 631.399 447.804 632.397 447.408 633.337C447.012 634.276 446.522 635.185 445.68 635.93C445.463 636.119 445.222 636.28 444.897 636.391C444.589 636.505 444.11 636.51 443.768 636.232C443.43 635.969 443.313 635.62 443.24 635.343C443.177 635.08 443.137 634.81 443.113 634.543C443.051 633.482 443.262 632.498 443.516 631.56C443.787 630.626 444.117 629.733 444.435 628.827ZM444.435 628.827C444.107 629.727 443.867 630.66 443.735 631.611C443.616 632.558 443.619 633.543 443.868 634.391C443.978 634.802 444.224 635.282 444.333 635.248C444.371 635.244 444.376 635.234 444.486 635.174C444.582 635.118 444.704 634.985 444.821 634.863C445.301 634.3 445.686 633.467 446.031 632.664C446.365 631.847 446.67 630.979 446.901 630.1C447.141 629.227 447.33 628.31 447.321 627.421C447.303 626.998 447.239 626.52 447 626.304C446.781 626.073 446.318 626.227 445.987 626.52C445.655 626.813 445.35 627.175 445.103 627.579C444.88 627.983 444.661 628.404 444.435 628.827Z" fill="#DEDDDE"/>
<path d="M451.882 622.571L452.716 621.382C453.021 621.02 453.338 620.612 453.848 620.486C454.101 620.432 454.418 620.555 454.584 620.795C454.755 621.024 454.843 621.296 454.903 621.551C455.026 622.07 455.059 622.609 455.049 623.135C454.985 625.231 454.451 627.277 453.413 629.087C453.147 629.54 452.837 629.972 452.473 630.378C452.078 630.76 451.689 631.191 450.889 631.323C450.689 631.343 450.437 631.311 450.223 631.189C450.01 631.068 449.834 630.883 449.738 630.699C449.531 630.335 449.498 630.002 449.473 629.702C449.458 629.114 449.529 628.612 449.627 628.092C450.058 626.044 450.988 624.302 451.882 622.571ZM451.882 622.571C450.975 624.28 450.35 626.252 450.383 628.18C450.39 628.65 450.443 629.147 450.527 629.55C450.578 629.74 450.646 629.907 450.711 629.946C450.784 629.983 450.694 629.909 450.739 629.903C450.858 629.874 451.182 629.584 451.421 629.268C451.672 628.941 451.925 628.587 452.15 628.19C453.042 626.631 453.851 624.876 454.311 623.024C454.409 622.565 454.479 622.088 454.467 621.629C454.45 621.18 454.303 620.686 453.883 620.706C453.477 620.749 453.084 621.078 452.763 621.411C452.447 621.793 452.174 622.188 451.882 622.571Z" fill="#DEDDDE"/>
<path d="M457.61 623.933L458.16 623.486C458.34 623.334 458.517 623.167 458.738 623.081C458.949 622.988 459.199 622.919 459.439 623.023C459.674 623.138 459.823 623.4 459.89 623.653C460.035 624.165 460.032 624.689 459.987 625.2C459.952 625.717 459.866 626.225 459.764 626.728C459.313 628.731 458.529 630.668 457.102 632.232C456.722 632.609 456.342 632.986 455.706 633.229C455.405 633.341 454.954 633.422 454.486 633.175C454.02 632.902 453.845 632.425 453.781 632.094C453.648 631.389 453.795 630.846 453.922 630.317C454.063 629.809 454.235 629.335 454.432 628.861C455.241 626.986 456.388 625.407 457.61 623.933ZM457.61 623.933C456.376 625.394 455.5 627.222 455.163 629.12C455.005 630.036 454.848 631.132 455.052 631.719C455.097 631.859 455.152 631.859 455.108 631.813C455.066 631.775 455.1 631.781 455.221 631.735C455.452 631.627 455.779 631.345 456.063 631.049C457.208 629.789 458.258 628.172 459.063 626.46C459.424 625.6 459.792 624.644 459.692 623.707C459.655 623.478 459.567 623.266 459.387 623.151C459.208 623.044 458.968 623.06 458.762 623.142C458.544 623.21 458.354 623.356 458.172 623.499L457.61 623.933Z" fill="#DEDDDE"/>
<path d="M458.853 632.95C459.246 632.74 459.638 632.437 460.113 632.476C460.347 632.497 460.571 632.658 460.68 632.889C460.796 633.118 460.842 633.379 460.861 633.63C460.927 634.647 460.697 635.645 460.432 636.603C460.155 637.574 459.755 638.497 459.263 639.373C458.753 640.236 458.17 641.063 457.305 641.721C457.089 641.884 456.853 642.035 456.569 642.15C456.301 642.269 455.95 642.371 455.519 642.292C455.305 642.256 455.079 642.148 454.894 641.983C454.715 641.816 454.584 641.617 454.509 641.426C454.351 641.039 454.332 640.702 454.336 640.392C454.412 639.167 454.879 638.291 455.321 637.406C456.24 635.65 457.481 634.188 458.853 632.95ZM458.853 632.95C457.455 634.179 456.482 635.909 456.018 637.744C455.786 638.649 455.566 639.627 455.645 640.366C455.655 640.551 455.709 640.697 455.748 640.754C455.803 640.813 455.758 640.733 455.758 640.733C455.794 640.748 456.172 640.603 456.449 640.37C457.058 639.904 457.668 639.24 458.216 638.545C458.77 637.847 459.301 637.088 459.747 636.279C460.186 635.472 460.587 634.582 460.66 633.642C460.668 633.407 460.653 633.172 460.572 632.957C460.501 632.748 460.333 632.561 460.113 632.536C459.661 632.464 459.248 632.748 458.853 632.95Z" fill="#DEDDDE"/>
<path d="M445.907 647.933C445.693 647.692 445.342 647.674 445.087 647.84C444.83 647.998 444.625 648.234 444.42 648.47C444.017 648.94 443.587 649.427 442.996 649.63C442.403 649.86 441.726 649.567 441.323 649.059C440.901 648.54 440.722 647.867 440.634 647.209L440.632 647.201L440.635 647.183C440.645 645.002 441.176 642.827 442.129 640.873C442.607 639.89 443.197 638.967 443.897 638.137C444.61 637.296 445.381 636.581 446.403 636.011L446.231 636.134C446.902 635.459 447.662 634.851 448.56 634.44C449.442 634.025 450.503 633.777 451.558 634.071L451.804 634.139L451.955 634.349C452.621 635.254 453.012 636.306 453.258 637.352C453.484 638.405 453.553 639.463 453.541 640.513L453.527 640.372C453.784 642.075 453.608 643.751 453.217 645.332C453.019 646.124 452.742 646.888 452.44 647.618C452.14 648.356 451.788 649.075 451.359 649.742C450.928 650.401 450.419 651.033 449.795 651.469C449.192 651.899 448.449 652.33 447.684 652.091C447.317 651.957 447.037 651.643 446.858 651.296C446.672 650.952 446.554 650.568 446.482 650.179C446.41 649.791 446.39 649.393 446.342 649.006C446.275 648.606 446.197 648.194 445.907 647.933ZM445.907 647.933C446.195 648.186 446.292 648.61 446.347 648.995C446.405 649.389 446.431 649.784 446.509 650.162C446.652 650.906 447.007 651.738 447.703 651.956C448.396 652.133 449.077 651.704 449.623 651.24C450.18 650.756 450.595 650.128 450.945 649.46C451.295 648.793 451.561 648.075 451.791 647.342C452.027 646.599 452.218 645.87 452.339 645.111C452.578 643.612 452.575 642.061 452.25 640.663L452.237 640.615L452.236 640.521C452.201 639.563 452.077 638.624 451.843 637.746C451.624 636.863 451.276 636.029 450.78 635.379L451.177 635.657C450.543 635.497 449.814 635.598 449.118 635.911C448.421 636.225 447.747 636.711 447.121 637.26L447.032 637.339L446.949 637.383C446.203 637.746 445.4 638.368 444.71 639.031C444.015 639.704 443.4 640.498 442.88 641.356C441.835 643.083 441.134 645.096 440.946 647.197L440.946 647.171C440.972 647.797 441.104 648.442 441.46 648.921C441.811 649.411 442.403 649.714 442.972 649.543C443.544 649.381 443.98 648.891 444.395 648.435C444.602 648.207 444.814 647.969 445.08 647.816C445.338 647.658 445.698 647.682 445.907 647.933Z" fill="#DEDDDE"/>
</g>
<defs>
<filter id="filter0_d_1033_11432" x="21" y="-4.95605" width="504" height="760.329" filterUnits="userSpaceOnUse" color-interpolation-filters="sRGB">
<feFlood flood-opacity="0" result="BackgroundImageFix"/>
<feColorMatrix in="SourceAlpha" type="matrix" values="0 0 0 0 0 0 0 0 0 0 0 0 0 0 0 0 0 0 127 0" result="hardAlpha"/>
<feOffset dy="4"/>
<feGaussianBlur stdDeviation="2"/>
<feComposite in2="hardAlpha" operator="out"/>
<feColorMatrix type="matrix" values="0 0 0 0 0 0 0 0 0 0 0 0 0 0 0 0 0 0 0.25 0"/>
<feBlend mode="normal" in2="BackgroundImageFix" result="effect1_dropShadow_1033_11432"/>
<feBlend mode="normal" in="SourceGraphic" in2="effect1_dropShadow_1033_11432" result="shape"/>
</filter>
<clipPath id="clip0_1033_11432">
<rect width="496" height="752.329" fill="white" transform="translate(25 -4.95605)"/>
</clipPath>
<clipPath id="clip1_1033_11432">
<rect width="228.432" height="229.886" fill="white" transform="matrix(0.953861 -0.300248 0.257322 0.966326 243.861 551.991)"/>
</clipPath>
</defs>
</svg>
