<svg width="47" height="76" viewBox="0 0 47 76" fill="none" xmlns="http://www.w3.org/2000/svg">
<g opacity="0.2">
<path opacity="0.2" d="M43.8438 68.2949H40.9375C40.9375 66.9735 40.9375 64.7807 40.9375 61.1521C40.9375 53.0414 36.5781 47.9574 36.5781 47.9574C36.5781 47.9574 32.2551 42.8735 30.9255 41.311C29.5959 39.7485 30.9255 38.136 30.9255 38.136C30.9255 38.136 32.8727 35.8467 36.9894 31.0056C41.1061 26.1646 40.9375 19.1128 40.9375 19.1128L40.939 9.96101L23.5 8.17529L6.06105 9.96101L6.0625 19.1128C6.0625 19.1128 5.89394 26.1646 10.0106 31.0056C14.1273 35.8467 16.0745 38.136 16.0745 38.136C16.0745 38.136 17.4041 39.7485 16.0745 41.311C14.7449 42.8735 10.4219 47.9574 10.4219 47.9574C10.4219 47.9574 6.0625 53.0414 6.0625 61.1521C6.0625 64.7807 6.0625 66.9735 6.0625 68.2949H3.15625C1.55055 68.2949 0.25 69.8932 0.25 71.8664C0.25 73.8396 1.55055 75.4378 3.15625 75.4378H43.8438C45.4495 75.4378 46.75 73.8396 46.75 71.8664C46.75 69.8932 45.4495 68.2949 43.8438 68.2949Z" fill="#231F20"/>
</g>
<path d="M30.9255 34.5647C30.1539 33.9285 30.1536 33.9289 30.1533 33.9293L30.1527 33.9301L30.1513 33.9318L30.1481 33.9356L30.1403 33.9453C30.1345 33.9525 30.1275 33.9615 30.1193 33.972C30.103 33.9932 30.0822 34.0209 30.0579 34.0548C30.0094 34.1225 29.9464 34.216 29.8778 34.3319C29.7423 34.561 29.576 34.8931 29.4633 35.2987C29.2297 36.1399 29.2368 37.2984 30.1639 38.3878C30.8286 39.1689 32.2416 40.8304 33.4886 42.2967L35.1201 44.2152L35.6279 44.8124L35.7674 44.9765L35.8039 45.0193L35.8132 45.0303L35.8155 45.033L35.8161 45.0337L35.8162 45.0339L36.5781 44.3861L35.8163 45.0339L35.8178 45.0357L35.8181 45.0361L35.8182 45.0361L35.8185 45.0366L35.819 45.0371L35.8234 45.0424C35.8289 45.049 35.8384 45.0604 35.8516 45.0766C35.878 45.109 35.9191 45.1604 35.973 45.2304C36.0808 45.3704 36.2391 45.5843 36.4313 45.8681C36.816 46.436 37.3348 47.2815 37.8552 48.3725C38.8964 50.5554 39.9375 53.7067 39.9375 57.5808C39.9375 61.6353 39.9378 63.9046 39.9382 65.1603L39.9384 65.6576H23.5H7.06156L7.06176 65.161C7.06212 63.9055 7.06249 61.6362 7.06249 57.5808C7.06249 53.7067 8.10352 50.5554 9.14475 48.3725C9.66515 47.2815 10.184 46.436 10.5686 45.8681C10.7609 45.5843 10.9192 45.3704 11.027 45.2304C11.0808 45.1604 11.122 45.109 11.1484 45.0766C11.1616 45.0604 11.1711 45.049 11.1766 45.0424L11.181 45.0371L11.1814 45.0366L11.1818 45.0361L11.1819 45.0361L11.1822 45.0357L11.1837 45.0339L10.4219 44.3861L11.1837 45.0339L11.1839 45.0337L11.1845 45.033L11.1868 45.0303L11.1961 45.0193L11.2325 44.9765L11.372 44.8124L11.8799 44.2152L13.5114 42.2967C14.7584 40.8304 16.1714 39.1689 16.8361 38.3878C17.7631 37.2984 17.7703 36.1399 17.5367 35.2987C17.424 34.8931 17.2577 34.561 17.1222 34.3319C17.0536 34.216 16.9905 34.1225 16.9421 34.0548C16.9178 34.0209 16.8969 33.9932 16.8806 33.972C16.8725 33.9615 16.8654 33.9525 16.8596 33.9453L16.8519 33.9356L16.8487 33.9318L16.8473 33.9301L16.8467 33.9293C16.8464 33.9289 16.8461 33.9285 16.0745 34.5647M30.9255 34.5647L30.1637 33.9168L30.1638 33.9167L30.1641 33.9164L30.1652 33.9151L30.1694 33.9101L30.1866 33.8899L30.2554 33.809L30.5323 33.4835L31.6519 32.1671L36.2275 26.7865C38.1329 24.546 39.0715 21.7577 39.5265 19.4769C39.7525 18.3439 39.8554 17.3556 39.9017 16.6533C39.9248 16.3026 39.9336 16.0245 39.9368 15.837C39.9384 15.7433 39.9386 15.6723 39.9384 15.6262C39.9383 15.6032 39.9381 15.5864 39.9379 15.5762L39.9378 15.5658L39.9378 15.5654L39.9378 15.5649L39.9377 15.5645L39.9377 15.5643L39.9375 15.5534V15.5413L39.9388 7.29253L23.5 5.60923L7.06118 7.29253L7.06249 15.5413L7.06249 15.5534L7.06223 15.5643L7.06222 15.5645L7.06221 15.5649L7.0622 15.5654L7.0622 15.5658L7.06203 15.5762C7.06188 15.5864 7.06169 15.6032 7.06159 15.6262C7.06139 15.6723 7.06155 15.7433 7.06314 15.837C7.06632 16.0245 7.07522 16.3026 7.09831 16.6533C7.14457 17.3556 7.24744 18.3439 7.47347 19.4769C7.92851 21.7577 8.86711 24.546 10.7724 26.7865L15.3481 32.1671L16.4677 33.4835L16.7445 33.809L16.8134 33.8899L16.8305 33.9101L16.8348 33.9151L16.8359 33.9164L16.8362 33.9167L16.8362 33.9168L16.0745 34.5647M30.9255 34.5647L30.1539 33.9285L30.1588 33.9226L30.1637 33.9168L30.9255 34.5647ZM16.0745 34.5647L16.8362 33.9168L16.8412 33.9226L16.8461 33.9285L16.0745 34.5647Z" stroke="#F2B694" stroke-width="2"/>
<path d="M22.0469 55.7943L22.0919 36.1515C22.1151 32.4711 20.7085 30.1479 20.1578 29.48L14.0285 22.2729C11.9476 19.8247 11.8721 15.7908 11.8721 15.7515H23.5H35.1279C35.1264 15.7515 35.0945 19.7783 32.9714 22.2729L26.9076 29.4015C26.2914 30.1479 24.9299 32.4711 24.9531 36.1515V55.7943H22.0469Z" fill="#F2B694"/>
<g opacity="0.3">
<path opacity="0.3" d="M46.75 7.58071C46.75 9.55392 45.4495 11.1521 43.8438 11.1521H3.15625C1.55055 11.1521 0.25 9.55392 0.25 7.58071C0.25 5.60749 1.55055 4.00928 3.15625 4.00928H43.8438C45.4495 4.00928 46.75 5.60749 46.75 7.58071Z" fill="#231F20"/>
</g>
<path d="M45.75 4.00893C45.75 5.63234 44.7144 6.58036 43.8438 6.58036H3.15625C2.28558 6.58036 1.25 5.63234 1.25 4.00893C1.25 2.38552 2.28558 1.4375 3.15625 1.4375H43.8438C44.7144 1.4375 45.75 2.38552 45.75 4.00893Z" stroke="#F2B694" stroke-width="2"/>
<path d="M45.75 68.2941C45.75 69.9175 44.7144 70.8655 43.8438 70.8655H3.15625C2.28558 70.8655 1.25 69.9175 1.25 68.2941C1.25 66.6707 2.28558 65.7227 3.15625 65.7227H43.8438C44.7144 65.7227 45.75 66.6707 45.75 68.2941Z" stroke="#F2B694" stroke-width="2"/>
<path d="M36.5781 64.7232H10.4219L23.5 50.4375L36.5781 64.7232Z" fill="#F2B694"/>
</svg>
