<svg width="30" height="29" viewBox="0 0 30 29" fill="none" xmlns="http://www.w3.org/2000/svg">
<g clip-path="url(#clip0_1145_2304)">
<path d="M11.4443 28.3703C11.32 28.0396 11.1953 27.7074 11.0703 27.3737L11.1635 27.3985C11.0474 26.6731 10.5315 26.085 10.1195 25.4731C9.70755 24.8613 9.38097 24.0796 9.68243 23.4077C9.77901 23.1938 9.93309 23.0086 10.0269 22.7936C10.0777 22.667 10.118 22.5365 10.1475 22.4034C10.2496 21.9911 10.3523 21.5765 10.3858 21.1537C10.4048 20.9228 10.4026 20.6902 10.4361 20.4609C10.5109 19.951 10.7582 19.4835 10.9301 18.9968C11.1593 18.3464 11.2542 17.6572 11.2093 16.97C11.2095 16.974 11.2095 16.9781 11.2093 16.9821V16.9126L11.2126 16.9678C11.2295 16.8423 11.2349 16.7155 11.2288 16.5891L11.2132 15.8427C11.2042 15.4227 11.1942 14.9949 11.0546 14.5986C10.9848 14.4002 10.8196 14.2359 10.9017 14.0419L10.881 14.0027C10.6488 13.8831 10.4478 13.7823 10.1871 13.7519C10.0671 13.7387 9.94202 13.7343 9.8326 13.6841C9.5825 13.57 9.49765 13.2691 9.4368 13.0034C9.41799 12.9435 9.41549 12.8798 9.42954 12.8187C9.44704 12.7778 9.47202 12.7404 9.50323 12.7085L9.88285 12.2636C9.93582 12.2109 9.97425 12.1456 9.9945 12.074C10.0252 11.9191 9.88787 11.7857 9.84265 11.633C9.79353 11.4677 9.85717 11.2929 9.94761 11.1469C10.038 11.0008 10.1542 10.8713 10.2267 10.7169C10.2914 10.5634 10.3322 10.4012 10.3479 10.2357C10.4265 9.6623 10.4624 9.08398 10.4551 8.50541C10.4452 8.37908 10.4579 8.25204 10.4925 8.13002C10.6281 7.74417 11.13 7.65542 11.4532 7.40241C11.6296 7.2646 11.7547 7.07168 11.9149 6.91733C12.1667 6.67149 12.4977 6.52156 12.8299 6.39974C13.1001 6.30107 13.3815 6.21673 13.6673 6.21949C14.2105 6.22555 14.6359 6.51163 15.1584 6.36391C16.1463 6.27756 17.1327 6.54502 17.9374 7.11743C18.2964 7.3743 18.6112 7.68794 18.9702 7.94426C19.4543 8.28909 20.0093 8.52451 20.5958 8.63384C20.9308 8.69558 21.2987 8.73085 21.5303 8.97394C21.7403 9.19443 21.7726 9.52131 21.8977 9.79692C21.9535 9.92701 22.0372 10.0494 22.0652 10.1883C22.1288 10.4766 21.9658 10.7616 21.915 11.0526C21.8335 11.52 22.0445 11.9831 22.2499 12.4114L22.2779 12.3849C22.174 12.9179 22.4213 13.4521 22.6926 13.9245C22.964 14.3969 23.2738 14.8759 23.3101 15.4172C23.3179 15.5357 23.3073 15.668 23.2213 15.7507C23.1353 15.8334 23.0254 15.84 22.9171 15.8455C22.4861 15.8675 22.0049 15.7942 21.7324 15.4646C21.4745 15.1526 21.4728 14.6929 21.23 14.371C21.0441 14.1251 20.7376 13.9851 20.5573 13.7371C20.4222 13.5502 20.3703 13.3176 20.2553 13.1175C20.1403 12.9174 19.9153 12.7421 19.692 12.8044C19.6775 13.5381 20.5796 14.0524 20.5634 14.7855C20.5595 14.958 20.5032 15.1267 20.5076 15.2992C20.5182 15.6636 20.7912 15.9579 20.9972 16.26C21.2003 16.5582 21.3476 16.89 21.4321 17.2395C21.4567 17.3404 21.4773 17.4468 21.5437 17.5273C21.6755 17.6871 21.92 17.6777 22.1288 17.6728C22.9411 17.6524 23.7316 17.9059 24.5031 18.1562C24.929 18.2946 25.3728 18.4439 25.6838 18.7625C25.9372 19.0216 26.0746 19.3689 26.2733 19.6704C26.6641 20.2685 27.267 20.6918 27.7505 21.2177C27.794 21.2656 27.837 21.3142 27.8789 21.3638C28.9874 19.2772 29.5658 16.9559 29.5642 14.5997C29.5642 6.53864 22.9461 0.00390625 14.7821 0.00390625C6.61815 0.00390625 0 6.53589 0 14.5997C0 21.5958 4.98525 27.4432 11.6397 28.8642C11.5682 28.7005 11.5085 28.5346 11.4443 28.3703Z" fill="#DEDDDE"/>
<path d="M19.5815 8.79004C19.8474 9.18554 20.0669 9.60957 20.2358 10.054C20.2846 10.167 20.3144 10.2871 20.324 10.4095C20.3279 10.538 20.2916 10.6658 20.2972 10.7954C20.3039 10.9508 20.3726 11.0969 20.4134 11.2474C20.5049 11.5814 20.4619 11.9348 20.4725 12.2804C20.4831 12.626 20.5646 13.0008 20.8354 13.2202C20.9175 13.0229 20.899 12.8013 20.8912 12.588C20.8753 11.9651 20.9775 11.3447 21.1927 10.759C21.2641 10.5639 21.3479 10.3456 21.2602 10.1571C21.1871 10.0011 21.0174 9.91618 20.8611 9.84067C20.4435 9.63892 20.0148 9.40465 19.7702 9.01383" fill="#DEDDDE"/>
<path d="M10.9898 10.7002C10.987 10.7515 10.7978 11.2387 10.7866 11.2895C10.7392 11.5011 10.6057 11.688 10.5633 11.9008C10.5164 12.1301 10.5773 12.3682 10.5566 12.6014C10.5432 12.7585 10.4918 12.9139 10.5058 13.071C10.5198 13.2281 10.6052 13.3863 10.6884 13.5302C10.8313 13.7782 10.992 14.0423 11.2567 14.1558C11.4409 14.2346 11.6474 14.2291 11.8501 14.2297C12.2821 14.2305 12.7133 14.2674 13.1391 14.3399C13.3453 14.3745 13.55 14.4176 13.7532 14.4695C13.9313 14.5147 14.1306 14.6166 14.317 14.5907C14.5286 14.5907 14.7558 14.6023 14.9507 14.5709C15.0065 14.195 15.0751 13.7275 15.1315 13.3516C15.1477 13.199 15.146 13.0451 15.1265 12.893C15.1036 12.7976 14.5878 12.1587 14.5286 12.0805C14.0111 11.3914 13.8844 11.484 13.3211 10.833" fill="#DEDDDE"/>
<path d="M12.0429 8.98242L11.8487 9.05684C12.1752 8.94108 12.5325 9.07282 12.8535 9.20291L13.3666 9.41128C13.4617 9.44087 13.5474 9.49422 13.6155 9.56617C13.6731 9.65448 13.7039 9.75717 13.7043 9.86218C13.7367 10.1995 13.7255 10.5948 13.4542 10.8026C13.2521 10.9575 12.973 10.9525 12.7257 11.017C12.6012 11.0501 12.4817 11.1019 12.3556 11.1272C11.8621 11.2325 11.4149 10.9718 10.9923 10.6989C11.0085 10.3897 10.8974 10.0678 10.9884 9.77012C11.0939 9.42726 11.435 9.21449 11.7699 9.07503" fill="#DEDDDE"/>
<path d="M16.3239 9.6352C17.1872 9.6352 17.887 9.18826 17.887 8.63694C17.887 8.08561 17.1872 7.63867 16.3239 7.63867C15.4606 7.63867 14.7607 8.08561 14.7607 8.63694C14.7607 9.18826 15.4606 9.6352 16.3239 9.6352Z" fill="#DEDDDE"/>
<path d="M11.2658 9.16743C12.129 9.16743 12.8289 8.72049 12.8289 8.16916C12.8289 7.61784 12.129 7.1709 11.2658 7.1709C10.4025 7.1709 9.70264 7.61784 9.70264 8.16916C9.70264 8.72049 10.4025 9.16743 11.2658 9.16743Z" fill="#DEDDDE"/>
<path d="M12.6606 8.36297C12.6606 8.36297 13.2301 7.91262 13.7973 7.92916C14.173 7.94128 14.4811 8.24611 14.7803 8.54156" stroke="#DEDDDE" stroke-miterlimit="10" stroke-linecap="round"/>
<path d="M17.7466 8.63758C17.7466 8.63758 19.6045 7.49104 20.6384 8.5097" stroke="#DEDDDE" stroke-miterlimit="10" stroke-linecap="round"/>
<path d="M19.7316 18.4341C19.7556 18.1276 20.4104 17.4777 20.1648 16.9573C19.8823 16.362 19.184 16.286 18.4554 16.367C17.5795 16.4646 16.7968 16.9243 16.1487 17.4953H15.8137C15.1662 16.9243 14.3835 16.4646 13.5076 16.367C12.7791 16.286 12.0801 16.3598 11.7982 16.9573C11.5526 17.4777 12.2074 18.1276 12.2314 18.4341C12.2565 18.7554 11.9327 19.7344 12.127 20.0762C12.6562 21.0072 14.1245 19.9786 15.1483 19.1088C15.1868 19.164 15.2383 19.2091 15.2984 19.2403C15.3585 19.2715 15.4254 19.2879 15.4933 19.2879H16.4691C16.537 19.2879 16.6039 19.2715 16.664 19.2403C16.7241 19.2091 16.7756 19.164 16.8141 19.1088C17.838 19.9786 19.3062 21.0072 19.836 20.0762C20.0303 19.7344 19.7065 18.7554 19.7316 18.4341Z" fill="#DEDDDE" stroke="#DEDDDE" stroke-miterlimit="10"/>
<path d="M11.2032 9.98687C11.1409 10.0527 11.0874 10.1263 11.0864 10.2204C11.0859 10.2599 11.0939 10.2991 11.1098 10.3354C11.1257 10.3718 11.1492 10.4044 11.1787 10.4312C11.2016 10.4523 11.2285 10.4688 11.2579 10.4796C11.2873 10.4905 11.3185 10.4954 11.3499 10.4943C11.3861 10.4897 11.4211 10.4782 11.4528 10.4602C11.4845 10.4423 11.5122 10.4184 11.5345 10.3898C11.5763 10.3423 11.6033 10.284 11.6124 10.2217C11.6165 10.1906 11.6141 10.1591 11.6052 10.129C11.5963 10.0989 11.5812 10.0709 11.5608 10.0468C11.5185 10.0043 11.4622 9.97787 11.402 9.97234C11.3369 9.96649 11.2712 9.97047 11.2073 9.98415" fill="#343A40"/>
<path d="M13.3905 13.0787C13.3269 12.9506 13.1422 13.085 13.0546 13.0396C12.8832 12.9506 12.7053 12.9221 12.5331 12.8394C12.2906 12.7219 12.0485 12.4923 11.8025 12.5786C11.7135 12.6098 11.6294 12.681 11.5413 12.7201C11.4537 12.7717 11.3596 12.7532 11.2788 12.6685C11.3059 12.4825 11.3998 12.3713 11.4892 12.2948C11.756 12.0669 12.048 11.9836 12.336 12.0531C12.624 12.1226 12.8978 12.3425 13.1298 12.6908C13.2129 12.8295 13.3003 12.959 13.3905 13.0787Z" fill="#343A40"/>
<path d="M12.7196 9.99555C12.7088 9.98657 12.6942 9.97948 12.6773 9.97501C12.6604 9.97054 12.6419 9.96886 12.6235 9.97014C12.5904 9.97243 12.5584 9.97862 12.5293 9.98835C12.4032 10.028 12.2917 10.0826 12.2018 10.1487C12.1736 10.1662 12.1535 10.1878 12.1436 10.2113C12.1393 10.2403 12.1489 10.2694 12.1714 10.2951C12.2056 10.358 12.2693 10.4137 12.3548 10.4555C12.4566 10.4968 12.5887 10.498 12.7114 10.4915C12.8227 10.4877 12.9322 10.4727 13.0352 10.4472C13.0851 10.4358 13.1288 10.4163 13.1616 10.3911C13.1851 10.3666 13.1978 10.339 13.1984 10.3108C13.1991 10.2826 13.1877 10.2547 13.1654 10.2299C13.0902 10.1309 12.934 10.0687 12.7892 10.0088" fill="#343A40"/>
</g>
<defs>
<clipPath id="clip0_1145_2304">
<rect width="29.5642" height="28.8603" fill="white"/>
</clipPath>
</defs>
</svg>
