<svg width="84" height="25" viewBox="0 0 84 25" fill="none" xmlns="http://www.w3.org/2000/svg">
<path d="M80.3198 23.0035V19.8818H83.9998V23.0035H80.3198Z" fill="#DEDDDE"/>
<path d="M0.938477 24.0443V0.111328H5.98994C7.94139 0.111328 9.43007 0.648781 10.456 1.72367C11.4819 2.79855 11.9893 4.3213 11.9781 6.29192V17.4942C11.9781 19.7336 11.4373 21.3851 10.3556 22.4488C9.27395 23.5124 7.71837 24.0443 5.68886 24.0443H0.938477ZM4.35072 3.34438V20.8112H5.92303C6.88482 20.8112 7.56225 20.5719 7.96369 20.0891C8.36514 19.6062 8.56586 18.8504 8.56586 17.8217V6.30871C8.61348 5.53861 8.41416 4.77343 7.99714 4.12535C7.62079 3.6089 6.92663 3.35279 5.9063 3.35279L4.35072 3.34438Z" fill="#DEDDDE"/>
<path d="M15.1345 5.85661C15.1172 4.99299 15.2902 4.13584 15.6416 3.34341C15.9546 2.64976 16.4156 2.02962 16.9938 1.52464C17.5346 1.06196 18.1596 0.702988 18.8361 0.466455C19.8484 0.109771 20.9388 0.0197777 21.9979 0.20551C23.057 0.391242 24.0476 0.846167 24.8702 1.52464C25.4315 2.0369 25.8801 2.65578 26.1886 3.34341C26.54 4.13584 26.713 4.99299 26.6956 5.85661V18.2903C26.7196 19.1651 26.5465 20.0345 26.1886 20.8366C25.8794 21.5046 25.4303 22.1017 24.8702 22.5892C24.3208 23.0654 23.6842 23.4357 22.9941 23.6804C21.6524 24.1656 20.1777 24.1656 18.8361 23.6804C18.154 23.4401 17.5276 23.0691 16.9938 22.5892C16.4171 22.109 15.9555 21.5107 15.6416 20.8366C15.2837 20.0345 15.1105 19.1651 15.1345 18.2903V5.85661ZM18.5826 18.2903C18.5542 18.6222 18.6016 18.9561 18.7215 19.2678C18.8413 19.5795 19.0306 19.8612 19.2756 20.0925C19.7365 20.4662 20.3164 20.6708 20.9151 20.6708C21.5138 20.6708 22.0937 20.4662 22.5546 20.0925C22.7996 19.8612 22.9888 19.5795 23.1087 19.2678C23.2286 18.9561 23.276 18.6222 23.2476 18.2903V5.85661C23.276 5.52473 23.2286 5.19082 23.1087 4.87911C22.9888 4.56739 22.7996 4.28566 22.5546 4.05437C22.0937 3.68063 21.5138 3.47609 20.9151 3.47609C20.3164 3.47609 19.7365 3.68063 19.2756 4.05437C19.0306 4.28566 18.8413 4.56739 18.7215 4.87911C18.6016 5.19082 18.5542 5.52473 18.5826 5.85661V18.2903Z" fill="#DEDDDE"/>
<path d="M29.3278 5.85661C29.3106 4.99299 29.4833 4.13584 29.8342 3.34341C30.1467 2.64976 30.6072 2.02962 31.1845 1.52464C31.7246 1.06196 32.3487 0.702988 33.0243 0.466455C34.0353 0.109771 35.1242 0.0197777 36.1819 0.20551C37.2395 0.391242 38.2287 0.846167 39.0502 1.52464C39.6107 2.0369 40.0587 2.65578 40.3667 3.34341C40.7177 4.13584 40.8904 4.99299 40.8731 5.85661V7.04705H37.4298V5.85661C37.4581 5.52473 37.4108 5.19082 37.2911 4.87911C37.1714 4.56739 36.9824 4.28566 36.7377 4.05437C36.2774 3.68063 35.6983 3.47609 35.1005 3.47609C34.5026 3.47609 33.9235 3.68063 33.4632 4.05437C33.2186 4.28566 33.0296 4.56739 32.9099 4.87911C32.7902 5.19082 32.7428 5.52473 32.7712 5.85661V18.2903C32.7428 18.6222 32.7902 18.9561 32.9099 19.2678C33.0296 19.5795 33.2186 19.8612 33.4632 20.0925C33.9235 20.4662 34.5026 20.6708 35.1005 20.6708C35.6983 20.6708 36.2774 20.4662 36.7377 20.0925C36.9824 19.8612 37.1714 19.5795 37.2911 19.2678C37.4108 18.9561 37.4581 18.6222 37.4298 18.2903V13.8591H34.6954V10.883H40.89V18.2903C40.9139 19.1651 40.7411 20.0345 40.3836 20.8366C40.0749 21.5046 39.6263 22.1017 39.0671 22.5892C38.5184 23.0654 37.8827 23.4357 37.1935 23.6804C35.8537 24.1656 34.381 24.1656 33.0412 23.6804C32.36 23.4401 31.7346 23.0691 31.2014 22.5892C30.6256 22.109 30.1646 21.5107 29.8511 20.8366C29.4936 20.0345 29.3208 19.1651 29.3447 18.2903L29.3278 5.85661Z" fill="#DEDDDE"/>
<path d="M44.0464 24.0443V0.111328H47.7263V24.0443H44.0464Z" fill="#DEDDDE"/>
<path d="M50.8804 24.0275V0.111328H54.2089L59.4393 14.5114H59.5073V0.128128H62.9716V24.0443H59.728L54.4296 9.67779H54.3617V24.0275H50.8804Z" fill="#DEDDDE"/>
<path d="M77.1653 17.1341V18.5888C77.1699 19.2986 77.0211 20.0018 76.728 20.6552C76.4398 21.2979 76.031 21.886 75.5212 22.391C75.003 22.9005 74.3853 23.3102 73.7023 23.5978C73.005 23.8973 72.247 24.0496 71.4811 24.0441C70.784 24.0402 70.0903 23.9513 69.4173 23.7796C68.7233 23.606 68.0784 23.2899 67.5284 22.8539C66.9464 22.3843 66.4756 21.8042 66.1467 21.1512C65.754 20.3146 65.5686 19.4042 65.6045 18.4896V5.53735C65.6027 4.80109 65.7512 4.07141 66.0417 3.38827C66.3098 2.74445 66.7146 2.15935 67.231 1.66903C67.7565 1.17681 68.381 0.788965 69.0675 0.528364C69.8182 0.24535 70.6205 0.104915 71.4286 0.115082C72.188 0.0875498 72.9451 0.211716 73.6503 0.479479C74.3555 0.747241 74.993 1.15258 75.5212 1.66903C76.0423 2.19074 76.4521 2.80254 76.728 3.47093C77.0255 4.19254 77.1739 4.96132 77.1653 5.73571V7.05822H73.5973V5.93411C73.6125 5.31367 73.4027 4.707 73.0027 4.21484C72.8163 3.98009 72.5726 3.79138 72.2925 3.66474C72.0123 3.5381 71.704 3.47727 71.3936 3.48746C70.5191 3.48746 69.9201 3.74783 69.6446 4.26443C69.3298 4.87616 69.1796 5.5519 69.2074 6.23166V18.2664C69.1852 18.8707 69.3493 19.468 69.6796 19.9857C69.9944 20.4486 70.5541 20.68 71.3761 20.68C71.6315 20.6773 71.8851 20.6383 72.1282 20.5643C72.4023 20.4842 72.6576 20.3551 72.8803 20.1841C73.1097 19.9811 73.2889 19.7327 73.405 19.4567C73.5562 19.0881 73.6276 18.6946 73.6148 18.2995V17.1423L77.1653 17.1341Z" fill="#DEDDDE"/>
</svg>
